<?xml version="1.0" encoding="UTF-8" standalone="no"?>
<!-- Created with Inkscape (http://www.inkscape.org/) -->

<svg
   width="11.482136mm"
   height="12.01083mm"
   viewBox="0 0 11.482136 12.01083"
   version="1.1"
   id="svg1"
   inkscape:version="1.3.2 (091e20e, 2023-11-25, custom)"
   sodipodi:docname="clear-night.svg"
   xmlns:inkscape="http://www.inkscape.org/namespaces/inkscape"
   xmlns:sodipodi="http://sodipodi.sourceforge.net/DTD/sodipodi-0.dtd"
   xmlns="http://www.w3.org/2000/svg"
   xmlns:svg="http://www.w3.org/2000/svg">
  <sodipodi:namedview
     id="namedview1"
     pagecolor="#505050"
     bordercolor="#eeeeee"
     borderopacity="1"
     inkscape:showpageshadow="0"
     inkscape:pageopacity="0"
     inkscape:pagecheckerboard="0"
     inkscape:deskcolor="#505050"
     inkscape:document-units="mm"
     inkscape:zoom="1.0520974"
     inkscape:cx="36.593571"
     inkscape:cy="-54.652737"
     inkscape:window-width="2560"
     inkscape:window-height="1377"
     inkscape:window-x="1432"
     inkscape:window-y="397"
     inkscape:window-maximized="1"
     inkscape:current-layer="layer1" />
  <defs
     id="defs1">
    <clipPath
       clipPathUnits="userSpaceOnUse"
       id="clipPath154">
      <path
         d="M 0,600 H 800 V 0 H 0 Z"
         transform="translate(-255.52491,-443.47021)"
         id="path154" />
    </clipPath>
  </defs>
  <g
     inkscape:label="Layer 1"
     inkscape:groupmode="layer"
     id="layer1"
     transform="translate(-95.249993,-162.98333)">
    <path
       id="path153"
       d="m 0,0 c -3.079,-1.275 -6.471,-1.275 -9.552,-0.001 -3.079,1.277 -5.477,3.675 -6.754,6.755 -1.275,3.08 -1.275,6.472 -10e-4,9.552 1.278,3.08 3.676,5.479 6.755,6.755 0.488,0.201 0.983,0.371 1.483,0.509 C -9.923,19.444 -10.137,14.592 -8.27,10.083 -6.401,5.573 -2.818,2.294 1.409,0.687 0.957,0.432 0.487,0.202 0,0 m 2.678,5.065 c -3.08,1.276 -5.479,3.674 -6.754,6.755 -1.276,3.079 -1.277,6.471 0,9.552 0.366,0.883 0.824,1.71 1.365,2.471 1.043,1.472 2.397,2.696 3.982,3.596 -1.882,0.715 -3.892,1.099 -5.933,1.114 -2.209,0.015 -4.457,-0.402 -6.626,-1.3 C -19.971,23.656 -24.096,13.701 -20.499,5.018 -16.901,-3.667 -6.946,-7.79 1.737,-4.193 3.906,-3.294 5.79,-2 7.342,-0.427 8.774,1.027 9.924,2.719 10.749,4.556 8.992,4.071 7.17,3.98 5.391,4.283 4.47,4.438 3.562,4.699 2.678,5.065"
       style="fill:#333333 icc-color(sRGB-IEC61966-2, 0.1, 0.19999695, 0.19999695, 0.19999695);fill-opacity:1;fill-rule:nonzero;stroke:none"
       transform="matrix(0.35277776,0,0,-0.35277776,102.94012,173.05633)"
       clip-path="url(#clipPath154)" />
  </g>
</svg>
