<?xml version="1.0" encoding="UTF-8" standalone="no"?>
<!-- Created with Inkscape (http://www.inkscape.org/) -->

<svg
   width="17.709202mm"
   height="17.709021mm"
   viewBox="0 0 17.709202 17.709021"
   version="1.1"
   id="svg1"
   inkscape:version="1.3.2 (091e20e, 2023-11-25, custom)"
   sodipodi:docname="clear-day.svg"
   xmlns:inkscape="http://www.inkscape.org/namespaces/inkscape"
   xmlns:sodipodi="http://sodipodi.sourceforge.net/DTD/sodipodi-0.dtd"
   xmlns="http://www.w3.org/2000/svg"
   xmlns:svg="http://www.w3.org/2000/svg">
  <sodipodi:namedview
     id="namedview1"
     pagecolor="#505050"
     bordercolor="#eeeeee"
     borderopacity="1"
     inkscape:showpageshadow="0"
     inkscape:pageopacity="0"
     inkscape:pagecheckerboard="0"
     inkscape:deskcolor="#505050"
     inkscape:document-units="mm"
     inkscape:zoom="1.0520974"
     inkscape:cx="-151.60194"
     inkscape:cy="-307.00581"
     inkscape:window-width="1278"
     inkscape:window-height="1368"
     inkscape:window-x="2713"
     inkscape:window-y="405"
     inkscape:window-maximized="0"
     inkscape:current-layer="layer1" />
  <defs
     id="defs1">
    <clipPath
       clipPathUnits="userSpaceOnUse"
       id="clipPath154">
      <path
         d="M 0,600 H 800 V 0 H 0 Z"
         transform="translate(-255.52491,-443.47021)"
         id="path154" />
    </clipPath>
    <clipPath
       clipPathUnits="userSpaceOnUse"
       id="clipPath156">
      <path
         d="M 0,600 H 800 V 0 H 0 Z"
         transform="translate(-150,-468.99371)"
         id="path156" />
    </clipPath>
    <clipPath
       clipPathUnits="userSpaceOnUse"
       id="clipPath158">
      <path
         d="M 0,600 H 800 V 0 H 0 Z"
         transform="translate(-133.73781,-452.73101)"
         id="path158" />
    </clipPath>
    <clipPath
       clipPathUnits="userSpaceOnUse"
       id="clipPath160">
      <path
         d="M 0,600 H 800 V 0 H 0 Z"
         transform="translate(-149.9995,-429.90091)"
         id="path160" />
    </clipPath>
    <clipPath
       clipPathUnits="userSpaceOnUse"
       id="clipPath162">
      <path
         d="M 0,600 H 800 V 0 H 0 Z"
         transform="translate(-172.8301,-452.73101)"
         id="path162" />
    </clipPath>
    <clipPath
       clipPathUnits="userSpaceOnUse"
       id="clipPath164">
      <path
         d="M 0,600 H 800 V 0 H 0 Z"
         transform="translate(-150,-462.47121)"
         id="path164" />
    </clipPath>
    <clipPath
       clipPathUnits="userSpaceOnUse"
       id="clipPath166">
      <path
         d="M 0,600 H 800 V 0 H 0 Z"
         transform="translate(-138.501,-464.23101)"
         id="path166" />
    </clipPath>
    <clipPath
       clipPathUnits="userSpaceOnUse"
       id="clipPath168">
      <path
         d="M 0,600 H 800 V 0 H 0 Z"
         transform="translate(-136.1787,-438.90971)"
         id="path168" />
    </clipPath>
    <clipPath
       clipPathUnits="userSpaceOnUse"
       id="clipPath170">
      <path
         d="M 0,600 H 800 V 0 H 0 Z"
         transform="translate(-163.8213,-438.90971)"
         id="path170" />
    </clipPath>
    <clipPath
       clipPathUnits="userSpaceOnUse"
       id="clipPath172">
      <path
         d="M 0,600 H 800 V 0 H 0 Z"
         transform="translate(-161.49951,-464.23101)"
         id="path172" />
    </clipPath>
  </defs>
  <g
     inkscape:label="Layer 1"
     inkscape:groupmode="layer"
     id="layer1"
     transform="translate(-144.99165,-209.55)">
    <path
       id="path155"
       d="m 0,0 c -1.253,0 -2.269,1.016 -2.269,2.27 v 6.567 c 0,1.253 1.016,2.269 2.269,2.269 1.253,0 2.27,-1.016 2.27,-2.269 V 2.27 C 2.27,1.016 1.253,0 0,0"
       style="fill:#333333 icc-color(sRGB-IEC61966-2, 0.1, 0.19999695, 0.19999695, 0.19999695);fill-opacity:1;fill-rule:nonzero;stroke:none"
       transform="matrix(0.35277776,0,0,-0.35277776,153.8461,213.46795)"
       clip-path="url(#clipPath156)" />
    <path
       id="path157"
       d="m 0,0 h -6.568 c -1.253,0 -2.269,1.017 -2.269,2.27 0,1.252 1.016,2.269 2.269,2.269 H 0 C 1.253,4.539 2.269,3.522 2.269,2.27 2.269,1.017 1.253,0 0,0"
       style="fill:#333333 icc-color(sRGB-IEC61966-2, 0.1, 0.19999695, 0.19999695, 0.19999695);fill-opacity:1;fill-rule:nonzero;stroke:none"
       transform="matrix(0.35277776,0,0,-0.35277776,148.10915,219.20507)"
       clip-path="url(#clipPath158)" />
    <path
       id="path159"
       d="m 0,0 c -1.253,0 -2.269,1.017 -2.269,2.27 v 6.567 c 0,1.254 1.016,2.269 2.269,2.269 1.253,0 2.27,-1.015 2.27,-2.269 V 2.27 C 2.27,1.017 1.253,0 0,0"
       style="fill:#333333 icc-color(sRGB-IEC61966-2, 0.1, 0.19999695, 0.19999695, 0.19999695);fill-opacity:1;fill-rule:nonzero;stroke:none"
       transform="matrix(0.35277776,0,0,-0.35277776,153.84592,227.25902)"
       clip-path="url(#clipPath160)" />
    <path
       id="path161"
       d="m 0,0 h -6.567 c -1.254,0 -2.27,1.017 -2.27,2.27 0,1.252 1.016,2.269 2.27,2.269 H 0 C 1.253,4.539 2.27,3.522 2.27,2.27 2.27,1.017 1.253,0 0,0"
       style="fill:#333333 icc-color(sRGB-IEC61966-2, 0.1, 0.19999695, 0.19999695, 0.19999695);fill-opacity:1;fill-rule:nonzero;stroke:none"
       transform="matrix(0.35277776,0,0,-0.35277776,161.90005,219.20507)"
       clip-path="url(#clipPath162)" />
    <path
       id="path163"
       d="m 0,0 c -4.119,0 -7.47,-3.352 -7.47,-7.471 0,-4.119 3.351,-7.47 7.47,-7.47 4.119,0 7.471,3.351 7.471,7.47 C 7.471,-3.352 4.119,0 0,0 m 0,-19.479 c -6.622,0 -12.009,5.386 -12.009,12.008 0,6.621 5.387,12.009 12.009,12.009 6.622,0 12.009,-5.388 12.009,-12.009 0,-6.622 -5.387,-12.008 -12.009,-12.008"
       style="fill:#333333 icc-color(sRGB-IEC61966-2, 0.1, 0.19999695, 0.19999695, 0.19999695);fill-opacity:1;fill-rule:nonzero;stroke:none"
       transform="matrix(0.35277776,0,0,-0.35277776,153.8461,215.76894)"
       clip-path="url(#clipPath164)" />
    <path
       id="path165"
       d="m 0,0 c -0.581,0 -1.162,0.221 -1.604,0.664 l -2.323,2.322 c -0.886,0.886 -0.886,2.323 0,3.209 0.886,0.886 2.323,0.886 3.209,0 L 1.604,3.873 C 2.491,2.987 2.491,1.55 1.604,0.664 1.161,0.221 0.581,0 0,0"
       style="fill:#333333 icc-color(sRGB-IEC61966-2, 0.1, 0.19999695, 0.19999695, 0.19999695);fill-opacity:1;fill-rule:nonzero;stroke:none"
       transform="matrix(0.35277776,0,0,-0.35277776,149.7895,215.14812)"
       clip-path="url(#clipPath166)" />
    <path
       id="path167"
       d="m 0,0 c -0.581,0 -1.161,0.222 -1.604,0.665 -0.887,0.886 -0.887,2.323 0,3.209 l 2.322,2.321 c 0.886,0.887 2.323,0.887 3.209,0 0.886,-0.885 0.886,-2.322 0,-3.209 L 1.604,0.665 C 1.162,0.222 0.581,0 0,0"
       style="fill:#333333 icc-color(sRGB-IEC61966-2, 0.1, 0.19999695, 0.19999695, 0.19999695);fill-opacity:1;fill-rule:nonzero;stroke:none"
       transform="matrix(0.35277776,0,0,-0.35277776,148.97025,224.08092)"
       clip-path="url(#clipPath168)" />
    <path
       id="path169"
       d="m 0,0 c -0.58,0 -1.162,0.222 -1.604,0.665 l -2.322,2.322 c -0.886,0.886 -0.886,2.323 0,3.208 0.886,0.887 2.322,0.887 3.209,0 L 1.604,3.874 C 2.491,2.988 2.491,1.551 1.604,0.665 1.162,0.222 0.581,0 0,0"
       style="fill:#333333 icc-color(sRGB-IEC61966-2, 0.1, 0.19999695, 0.19999695, 0.19999695);fill-opacity:1;fill-rule:nonzero;stroke:none"
       transform="matrix(0.35277776,0,0,-0.35277776,158.72194,224.08092)"
       clip-path="url(#clipPath170)" />
    <path
       id="path171"
       d="m 0,0 c -0.581,0 -1.162,0.221 -1.604,0.664 -0.887,0.887 -0.887,2.323 0,3.209 l 2.321,2.322 c 0.887,0.886 2.324,0.886 3.21,0 C 4.812,5.31 4.812,3.872 3.926,2.986 L 1.604,0.664 C 1.161,0.221 0.581,0 0,0"
       style="fill:#333333 icc-color(sRGB-IEC61966-2, 0.1, 0.19999695, 0.19999695, 0.19999695);fill-opacity:1;fill-rule:nonzero;stroke:none"
       transform="matrix(0.35277776,0,0,-0.35277776,157.90286,215.14812)"
       clip-path="url(#clipPath172)" />
  </g>
</svg>
