<?xml version="1.0" encoding="UTF-8" standalone="no"?>
<!-- Created with Inkscape (http://www.inkscape.org/) -->

<svg
   width="19.294729mm"
   height="11.905191mm"
   viewBox="0 0 19.294729 11.905192"
   version="1.1"
   id="svg1"
   inkscape:version="1.3.2 (091e20e, 2023-11-25, custom)"
   sodipodi:docname="cloudy.svg"
   xmlns:inkscape="http://www.inkscape.org/namespaces/inkscape"
   xmlns:sodipodi="http://sodipodi.sourceforge.net/DTD/sodipodi-0.dtd"
   xmlns="http://www.w3.org/2000/svg"
   xmlns:svg="http://www.w3.org/2000/svg">
  <sodipodi:namedview
     id="namedview1"
     pagecolor="#505050"
     bordercolor="#eeeeee"
     borderopacity="1"
     inkscape:showpageshadow="0"
     inkscape:pageopacity="0"
     inkscape:pagecheckerboard="0"
     inkscape:deskcolor="#505050"
     inkscape:document-units="mm"
     inkscape:zoom="1.0520974"
     inkscape:cx="-165.85917"
     inkscape:cy="-110.25596"
     inkscape:window-width="1278"
     inkscape:window-height="1368"
     inkscape:window-x="2713"
     inkscape:window-y="405"
     inkscape:window-maximized="0"
     inkscape:current-layer="layer1" />
  <defs
     id="defs1">
    <clipPath
       clipPathUnits="userSpaceOnUse"
       id="clipPath154">
      <path
         d="M 0,600 H 800 V 0 H 0 Z"
         transform="translate(-255.52491,-443.47021)"
         id="path154" />
    </clipPath>
    <clipPath
       clipPathUnits="userSpaceOnUse"
       id="clipPath156">
      <path
         d="M 0,600 H 800 V 0 H 0 Z"
         transform="translate(-150,-468.99371)"
         id="path156" />
    </clipPath>
    <clipPath
       clipPathUnits="userSpaceOnUse"
       id="clipPath158">
      <path
         d="M 0,600 H 800 V 0 H 0 Z"
         transform="translate(-133.73781,-452.73101)"
         id="path158" />
    </clipPath>
    <clipPath
       clipPathUnits="userSpaceOnUse"
       id="clipPath160">
      <path
         d="M 0,600 H 800 V 0 H 0 Z"
         transform="translate(-149.9995,-429.90091)"
         id="path160" />
    </clipPath>
    <clipPath
       clipPathUnits="userSpaceOnUse"
       id="clipPath162">
      <path
         d="M 0,600 H 800 V 0 H 0 Z"
         transform="translate(-172.8301,-452.73101)"
         id="path162" />
    </clipPath>
    <clipPath
       clipPathUnits="userSpaceOnUse"
       id="clipPath164">
      <path
         d="M 0,600 H 800 V 0 H 0 Z"
         transform="translate(-150,-462.47121)"
         id="path164" />
    </clipPath>
    <clipPath
       clipPathUnits="userSpaceOnUse"
       id="clipPath166">
      <path
         d="M 0,600 H 800 V 0 H 0 Z"
         transform="translate(-138.501,-464.23101)"
         id="path166" />
    </clipPath>
    <clipPath
       clipPathUnits="userSpaceOnUse"
       id="clipPath168">
      <path
         d="M 0,600 H 800 V 0 H 0 Z"
         transform="translate(-136.1787,-438.90971)"
         id="path168" />
    </clipPath>
    <clipPath
       clipPathUnits="userSpaceOnUse"
       id="clipPath170">
      <path
         d="M 0,600 H 800 V 0 H 0 Z"
         transform="translate(-163.8213,-438.90971)"
         id="path170" />
    </clipPath>
    <clipPath
       clipPathUnits="userSpaceOnUse"
       id="clipPath172">
      <path
         d="M 0,600 H 800 V 0 H 0 Z"
         transform="translate(-161.49951,-464.23101)"
         id="path172" />
    </clipPath>
    <clipPath
       clipPathUnits="userSpaceOnUse"
       id="clipPath96">
      <path
         d="M 0,600 H 800 V 0 H 0 Z"
         transform="translate(-366.26611,-442.89601)"
         id="path96" />
    </clipPath>
    <clipPath
       clipPathUnits="userSpaceOnUse"
       id="clipPath54">
      <path
         d="M 0,600 H 800 V 0 H 0 Z"
         transform="translate(-472.62791,-443.96971)"
         id="path54" />
    </clipPath>
    <clipPath
       clipPathUnits="userSpaceOnUse"
       id="clipPath96-4">
      <path
         d="M 0,600 H 800 V 0 H 0 Z"
         transform="translate(-366.26611,-442.89601)"
         id="path96-3" />
    </clipPath>
  </defs>
  <g
     inkscape:label="Layer 1"
     inkscape:groupmode="layer"
     id="layer1"
     transform="translate(-148.69581,-157.42709)">
    <path
       id="path95"
       d="m 0,0 c -0.646,-0.152 -1.306,-0.229 -1.963,-0.23 h -1.884 -24.836 -3.575 -0.018 -0.053 c -3.138,0 -5.836,2.135 -6.559,5.195 -0.416,1.755 -0.123,3.565 0.824,5.099 0.947,1.534 2.434,2.608 4.188,3.023 0.514,0.121 1.039,0.184 1.561,0.184 0.731,0 1.456,-0.121 2.152,-0.356 0.616,-0.209 1.293,-0.144 1.857,0.181 0.565,0.323 0.962,0.873 1.093,1.51 1.173,5.698 6.254,9.834 12.083,9.834 4.537,0 8.699,-2.484 10.859,-6.481 0.409,-0.755 1.209,-1.216 2.067,-1.189 0.085,0.002 0.17,0.003 0.255,0.003 3.952,0 7.349,-2.691 8.261,-6.544 C 7.393,5.669 4.56,1.08 0,0 m 10.729,11.274 c -0.681,2.873 -2.334,5.455 -4.657,7.269 -2.025,1.581 -4.492,2.533 -7.035,2.73 -3.098,4.785 -8.41,7.705 -14.167,7.705 -3.908,0 -7.718,-1.367 -10.727,-3.848 -2.372,-1.955 -4.164,-4.527 -5.182,-7.395 -1.287,0.148 -2.607,0.07 -3.883,-0.232 -2.932,-0.694 -5.421,-2.489 -7.005,-5.056 -1.583,-2.565 -2.072,-5.593 -1.378,-8.527 0.589,-2.487 2.02,-4.723 4.032,-6.292 1.979,-1.546 4.445,-2.397 6.944,-2.397 h 0.071 3.564 24.847 10e-4 0.96 0.924 c 1.009,0 2.021,0.12 3.007,0.353 6.995,1.656 11.34,8.695 9.684,15.69"
       style="fill:#333333 icc-color(sRGB-IEC61966-2, 0.1, 0.19999695, 0.19999695, 0.19999695);fill-opacity:1;fill-rule:nonzero;stroke:none"
       transform="matrix(0.35277776,0,0,-0.35277776,164.08138,167.64988)"
       clip-path="url(#clipPath96-4)" />
  </g>
</svg>
