<?xml version="1.0" encoding="UTF-8" standalone="no"?>
<!-- Created with Inkscape (http://www.inkscape.org/) -->

<svg
   width="22.187937mm"
   height="14.571344mm"
   viewBox="0 0 22.187937 14.571345"
   version="1.1"
   id="svg1"
   inkscape:version="1.3.2 (091e20e, 2023-11-25, custom)"
   sodipodi:docname="cloudy-wind.svg"
   xmlns:inkscape="http://www.inkscape.org/namespaces/inkscape"
   xmlns:sodipodi="http://sodipodi.sourceforge.net/DTD/sodipodi-0.dtd"
   xmlns="http://www.w3.org/2000/svg"
   xmlns:svg="http://www.w3.org/2000/svg">
  <sodipodi:namedview
     id="namedview1"
     pagecolor="#505050"
     bordercolor="#eeeeee"
     borderopacity="1"
     inkscape:showpageshadow="0"
     inkscape:pageopacity="0"
     inkscape:pagecheckerboard="0"
     inkscape:deskcolor="#505050"
     inkscape:document-units="mm"
     inkscape:zoom="1.0520974"
     inkscape:cx="115.48361"
     inkscape:cy="199.6013"
     inkscape:window-width="1278"
     inkscape:window-height="1368"
     inkscape:window-x="2713"
     inkscape:window-y="405"
     inkscape:window-maximized="0"
     inkscape:current-layer="layer1" />
  <defs
     id="defs1">
    <clipPath
       clipPathUnits="userSpaceOnUse"
       id="clipPath154">
      <path
         d="M 0,600 H 800 V 0 H 0 Z"
         transform="translate(-255.52491,-443.47021)"
         id="path154" />
    </clipPath>
    <clipPath
       clipPathUnits="userSpaceOnUse"
       id="clipPath156">
      <path
         d="M 0,600 H 800 V 0 H 0 Z"
         transform="translate(-150,-468.99371)"
         id="path156" />
    </clipPath>
    <clipPath
       clipPathUnits="userSpaceOnUse"
       id="clipPath158">
      <path
         d="M 0,600 H 800 V 0 H 0 Z"
         transform="translate(-133.73781,-452.73101)"
         id="path158" />
    </clipPath>
    <clipPath
       clipPathUnits="userSpaceOnUse"
       id="clipPath160">
      <path
         d="M 0,600 H 800 V 0 H 0 Z"
         transform="translate(-149.9995,-429.90091)"
         id="path160" />
    </clipPath>
    <clipPath
       clipPathUnits="userSpaceOnUse"
       id="clipPath162">
      <path
         d="M 0,600 H 800 V 0 H 0 Z"
         transform="translate(-172.8301,-452.73101)"
         id="path162" />
    </clipPath>
    <clipPath
       clipPathUnits="userSpaceOnUse"
       id="clipPath164">
      <path
         d="M 0,600 H 800 V 0 H 0 Z"
         transform="translate(-150,-462.47121)"
         id="path164" />
    </clipPath>
    <clipPath
       clipPathUnits="userSpaceOnUse"
       id="clipPath166">
      <path
         d="M 0,600 H 800 V 0 H 0 Z"
         transform="translate(-138.501,-464.23101)"
         id="path166" />
    </clipPath>
    <clipPath
       clipPathUnits="userSpaceOnUse"
       id="clipPath168">
      <path
         d="M 0,600 H 800 V 0 H 0 Z"
         transform="translate(-136.1787,-438.90971)"
         id="path168" />
    </clipPath>
    <clipPath
       clipPathUnits="userSpaceOnUse"
       id="clipPath170">
      <path
         d="M 0,600 H 800 V 0 H 0 Z"
         transform="translate(-163.8213,-438.90971)"
         id="path170" />
    </clipPath>
    <clipPath
       clipPathUnits="userSpaceOnUse"
       id="clipPath172">
      <path
         d="M 0,600 H 800 V 0 H 0 Z"
         transform="translate(-161.49951,-464.23101)"
         id="path172" />
    </clipPath>
    <clipPath
       clipPathUnits="userSpaceOnUse"
       id="clipPath96">
      <path
         d="M 0,600 H 800 V 0 H 0 Z"
         transform="translate(-366.26611,-442.89601)"
         id="path96" />
    </clipPath>
    <clipPath
       clipPathUnits="userSpaceOnUse"
       id="clipPath54">
      <path
         d="M 0,600 H 800 V 0 H 0 Z"
         transform="translate(-472.62791,-443.96971)"
         id="path54" />
    </clipPath>
    <clipPath
       clipPathUnits="userSpaceOnUse"
       id="clipPath96-4">
      <path
         d="M 0,600 H 800 V 0 H 0 Z"
         transform="translate(-366.26611,-442.89601)"
         id="path96-3" />
    </clipPath>
    <clipPath
       clipPathUnits="userSpaceOnUse"
       id="clipPath26">
      <path
         d="M 0,600 H 800 V 0 H 0 Z"
         transform="translate(-568.05271,-430.56881)"
         id="path26" />
    </clipPath>
    <clipPath
       clipPathUnits="userSpaceOnUse"
       id="clipPath28">
      <path
         d="M 0,600 H 800 V 0 H 0 Z"
         transform="translate(-558.75592,-438.12651)"
         id="path28" />
    </clipPath>
    <clipPath
       clipPathUnits="userSpaceOnUse"
       id="clipPath30">
      <path
         d="M 0,600 H 800 V 0 H 0 Z"
         transform="translate(-563.51371,-445.68411)"
         id="path30" />
    </clipPath>
    <clipPath
       clipPathUnits="userSpaceOnUse"
       id="clipPath32">
      <path
         d="M 0,600 H 800 V 0 H 0 Z"
         transform="translate(-581.09572,-454.17041)"
         id="path32" />
    </clipPath>
  </defs>
  <g
     inkscape:label="Layer 1"
     inkscape:groupmode="layer"
     id="layer1"
     transform="translate(-74.347889,-75.406254)">
    <path
       id="path25"
       d="m 0,0 h -37.934 c -1.252,0 -2.267,1.017 -2.267,2.27 0,1.252 1.015,2.268 2.267,2.268 H 0 C 1.252,4.538 2.27,3.522 2.27,2.27 2.27,1.017 1.252,0 0,0"
       style="fill:#333333 icc-color(sRGB-IEC61966-2, 0.1, 0.19999695, 0.19999695, 0.19999695);fill-opacity:1;fill-rule:nonzero;stroke:none"
       transform="matrix(0.35277776,0,0,-0.35277776,91.810317,89.977599)"
       clip-path="url(#clipPath26)" />
    <path
       id="path27"
       d="m 0,0 h -37.934 c -1.252,0 -2.269,1.016 -2.269,2.27 0,1.252 1.017,2.268 2.269,2.268 H 0 C 1.254,4.538 2.27,3.522 2.27,2.27 2.27,1.016 1.254,0 0,0"
       style="fill:#333333 icc-color(sRGB-IEC61966-2, 0.1, 0.19999695, 0.19999695, 0.19999695);fill-opacity:1;fill-rule:nonzero;stroke:none"
       transform="matrix(0.35277776,0,0,-0.35277776,88.530613,87.311409)"
       clip-path="url(#clipPath28)" />
    <path
       id="path29"
       d="m 0,0 h -37.932 c -1.254,0 -2.269,1.015 -2.269,2.269 0,1.253 1.015,2.268 2.269,2.268 H 0 C 1.254,4.537 2.27,3.522 2.27,2.269 2.27,1.015 1.254,0 0,0"
       style="fill:#333333 icc-color(sRGB-IEC61966-2, 0.1, 0.19999695, 0.19999695, 0.19999695);fill-opacity:1;fill-rule:nonzero;stroke:none"
       transform="matrix(0.35277776,0,0,-0.35277776,90.209058,84.645256)"
       clip-path="url(#clipPath30)" />
    <path
       id="path31"
       d="m 0,0 c -0.68,2.872 -2.332,5.454 -4.656,7.269 -2.026,1.581 -4.49,2.533 -7.035,2.729 -3.098,4.784 -8.411,7.705 -14.168,7.705 -3.907,0 -7.717,-1.366 -10.727,-3.849 -2.371,-1.956 -4.164,-4.526 -5.182,-7.394 -1.285,0.147 -2.607,0.069 -3.88,-0.232 -2.934,-0.694 -5.422,-2.49 -7.006,-5.055 -0.535,-0.867 -0.946,-1.787 -1.227,-2.739 h 4.887 c 0.062,0.12 0.129,0.238 0.203,0.355 0.945,1.533 2.434,2.607 4.187,3.023 0.514,0.122 1.04,0.183 1.561,0.183 0.73,0 1.455,-0.12 2.152,-0.356 0.616,-0.208 1.293,-0.142 1.856,0.18 0.566,0.325 0.965,0.874 1.096,1.512 1.171,5.698 6.253,9.834 12.08,9.834 4.539,0 8.701,-2.483 10.861,-6.481 0.408,-0.755 1.209,-1.215 2.064,-1.19 0.086,0.003 0.17,0.004 0.256,0.004 3.953,0 7.35,-2.691 8.262,-6.543 1.08,-4.561 -1.752,-9.15 -6.313,-10.23 -0.644,-0.153 -1.304,-0.231 -1.96,-0.231 h -5.59 c 0.375,-0.672 0.592,-1.445 0.592,-2.268 0,-0.825 -0.217,-1.599 -0.592,-2.27 h 5.59 c 1.009,0 2.019,0.119 3.005,0.353 C -2.688,-14.035 1.656,-6.996 0,0"
       style="fill:#333333 icc-color(sRGB-IEC61966-2, 0.1, 0.19999695, 0.19999695, 0.19999695);fill-opacity:1;fill-rule:nonzero;stroke:none"
       transform="matrix(0.35277776,0,0,-0.35277776,96.411598,81.651479)"
       clip-path="url(#clipPath32)" />
  </g>
</svg>
