<?xml version="1.0" encoding="UTF-8" standalone="no"?>
<!-- Created with Inkscape (http://www.inkscape.org/) -->

<svg
   width="23.784176mm"
   height="14.264568mm"
   viewBox="0 0 23.784176 14.264569"
   version="1.1"
   id="svg1"
   inkscape:version="1.3.2 (091e20e, 2023-11-25, custom)"
   sodipodi:docname="mostly-cloudy.svg"
   xmlns:inkscape="http://www.inkscape.org/namespaces/inkscape"
   xmlns:sodipodi="http://sodipodi.sourceforge.net/DTD/sodipodi-0.dtd"
   xmlns="http://www.w3.org/2000/svg"
   xmlns:svg="http://www.w3.org/2000/svg">
  <sodipodi:namedview
     id="namedview1"
     pagecolor="#505050"
     bordercolor="#eeeeee"
     borderopacity="1"
     inkscape:showpageshadow="0"
     inkscape:pageopacity="0"
     inkscape:pagecheckerboard="0"
     inkscape:deskcolor="#505050"
     inkscape:document-units="mm"
     inkscape:zoom="1.0520974"
     inkscape:cx="-10.930547"
     inkscape:cy="75.088108"
     inkscape:window-width="1278"
     inkscape:window-height="1368"
     inkscape:window-x="2713"
     inkscape:window-y="405"
     inkscape:window-maximized="0"
     inkscape:current-layer="layer1" />
  <defs
     id="defs1">
    <clipPath
       clipPathUnits="userSpaceOnUse"
       id="clipPath154">
      <path
         d="M 0,600 H 800 V 0 H 0 Z"
         transform="translate(-255.52491,-443.47021)"
         id="path154" />
    </clipPath>
    <clipPath
       clipPathUnits="userSpaceOnUse"
       id="clipPath156">
      <path
         d="M 0,600 H 800 V 0 H 0 Z"
         transform="translate(-150,-468.99371)"
         id="path156" />
    </clipPath>
    <clipPath
       clipPathUnits="userSpaceOnUse"
       id="clipPath158">
      <path
         d="M 0,600 H 800 V 0 H 0 Z"
         transform="translate(-133.73781,-452.73101)"
         id="path158" />
    </clipPath>
    <clipPath
       clipPathUnits="userSpaceOnUse"
       id="clipPath160">
      <path
         d="M 0,600 H 800 V 0 H 0 Z"
         transform="translate(-149.9995,-429.90091)"
         id="path160" />
    </clipPath>
    <clipPath
       clipPathUnits="userSpaceOnUse"
       id="clipPath162">
      <path
         d="M 0,600 H 800 V 0 H 0 Z"
         transform="translate(-172.8301,-452.73101)"
         id="path162" />
    </clipPath>
    <clipPath
       clipPathUnits="userSpaceOnUse"
       id="clipPath164">
      <path
         d="M 0,600 H 800 V 0 H 0 Z"
         transform="translate(-150,-462.47121)"
         id="path164" />
    </clipPath>
    <clipPath
       clipPathUnits="userSpaceOnUse"
       id="clipPath166">
      <path
         d="M 0,600 H 800 V 0 H 0 Z"
         transform="translate(-138.501,-464.23101)"
         id="path166" />
    </clipPath>
    <clipPath
       clipPathUnits="userSpaceOnUse"
       id="clipPath168">
      <path
         d="M 0,600 H 800 V 0 H 0 Z"
         transform="translate(-136.1787,-438.90971)"
         id="path168" />
    </clipPath>
    <clipPath
       clipPathUnits="userSpaceOnUse"
       id="clipPath170">
      <path
         d="M 0,600 H 800 V 0 H 0 Z"
         transform="translate(-163.8213,-438.90971)"
         id="path170" />
    </clipPath>
    <clipPath
       clipPathUnits="userSpaceOnUse"
       id="clipPath172">
      <path
         d="M 0,600 H 800 V 0 H 0 Z"
         transform="translate(-161.49951,-464.23101)"
         id="path172" />
    </clipPath>
    <clipPath
       clipPathUnits="userSpaceOnUse"
       id="clipPath96">
      <path
         d="M 0,600 H 800 V 0 H 0 Z"
         transform="translate(-366.26611,-442.89601)"
         id="path96" />
    </clipPath>
    <clipPath
       clipPathUnits="userSpaceOnUse"
       id="clipPath54">
      <path
         d="M 0,600 H 800 V 0 H 0 Z"
         transform="translate(-472.62791,-443.96971)"
         id="path54" />
    </clipPath>
  </defs>
  <g
     inkscape:label="Layer 1"
     inkscape:groupmode="layer"
     id="layer1"
     transform="translate(-107.6854,-108.47917)">
    <path
       id="path53"
       d="m 0,0 c -0.583,-0.137 -1.179,-0.214 -1.772,-0.228 0.221,1.562 0.16,3.19 -0.225,4.816 -0.68,2.873 -2.333,5.454 -4.657,7.268 -2.026,1.582 -4.492,2.533 -7.034,2.731 -2.202,3.399 -5.52,5.857 -9.323,6.995 2.159,1.794 4.924,2.858 7.881,2.858 4.539,0 8.7,-2.483 10.861,-6.481 0.408,-0.755 1.207,-1.216 2.065,-1.189 0.085,0.002 0.17,0.003 0.255,0.003 3.952,0 7.349,-2.691 8.261,-6.544 C 7.393,5.669 4.561,1.081 0,0 m -9.04,-4.769 c -1.018,-0.907 -2.268,-1.583 -3.687,-1.918 -0.644,-0.152 -1.304,-0.23 -1.961,-0.23 h -30.313 -0.053 c -3.138,0 -5.836,2.136 -6.559,5.195 -0.416,1.755 -0.123,3.566 0.823,5.099 0.947,1.534 2.434,2.607 4.188,3.023 0.515,0.121 1.039,0.183 1.561,0.183 0.482,0 0.961,-0.051 1.431,-0.154 0.242,-0.054 0.484,-0.119 0.721,-0.201 0.617,-0.209 1.293,-0.144 1.858,0.18 0.564,0.324 0.963,0.875 1.094,1.511 1.172,5.698 6.252,9.834 12.082,9.834 0.573,0 1.14,-0.039 1.698,-0.116 3.86,-0.535 7.274,-2.872 9.162,-6.366 0.408,-0.754 1.208,-1.215 2.064,-1.188 0.086,0.002 0.17,0.003 0.256,0.003 3.952,0 7.35,-2.69 8.262,-6.544 0.304,-1.281 0.298,-2.565 0.032,-3.772 -0.387,-1.754 -1.322,-3.347 -2.659,-4.539 m 19.77,16.044 c -0.681,2.873 -2.334,5.454 -4.658,7.269 -2.024,1.581 -4.492,2.533 -7.035,2.729 -3.098,4.785 -8.41,7.706 -14.167,7.706 -3.907,0 -7.718,-1.367 -10.726,-3.849 -1.025,-0.845 -1.942,-1.805 -2.734,-2.855 -3.648,-0.16 -7.173,-1.506 -9.993,-3.832 -2.371,-1.955 -4.164,-4.527 -5.182,-7.394 -1.285,0.147 -2.606,0.069 -3.881,-0.233 -2.935,-0.694 -5.422,-2.49 -7.006,-5.055 -1.582,-2.566 -2.073,-5.594 -1.378,-8.529 0.589,-2.486 2.02,-4.721 4.032,-6.291 1.978,-1.545 4.445,-2.397 6.944,-2.397 h 0.072 30.295 c 1.008,0 2.02,0.12 3.006,0.353 3.698,0.875 6.654,3.253 8.375,6.334 h 1.345 c 1.01,0 2.021,0.12 3.007,0.353 6.996,1.656 11.339,8.695 9.684,15.691"
       style="fill:#333333 icc-color(sRGB-IEC61966-2, 0.1, 0.19999695, 0.19999695, 0.19999695);fill-opacity:1;fill-rule:nonzero;stroke:none"
       transform="matrix(0.35277776,0,0,-0.35277776,127.56015,118.70232)"
       clip-path="url(#clipPath54)" />
  </g>
</svg>
