<?xml version="1.0" encoding="UTF-8" standalone="no"?>
<!-- Created with Inkscape (http://www.inkscape.org/) -->

<svg
   width="25.276724mm"
   height="17.526241mm"
   viewBox="0 0 25.276724 17.526242"
   version="1.1"
   id="svg1"
   inkscape:version="1.3.2 (091e20e, 2023-11-25, custom)"
   sodipodi:docname="partly-cloudy-day.svg"
   xmlns:inkscape="http://www.inkscape.org/namespaces/inkscape"
   xmlns:sodipodi="http://sodipodi.sourceforge.net/DTD/sodipodi-0.dtd"
   xmlns="http://www.w3.org/2000/svg"
   xmlns:svg="http://www.w3.org/2000/svg">
  <sodipodi:namedview
     id="namedview1"
     pagecolor="#505050"
     bordercolor="#eeeeee"
     borderopacity="1"
     inkscape:showpageshadow="0"
     inkscape:pageopacity="0"
     inkscape:pagecheckerboard="0"
     inkscape:deskcolor="#505050"
     inkscape:document-units="mm"
     inkscape:zoom="1.0520974"
     inkscape:cx="64.15756"
     inkscape:cy="28.514471"
     inkscape:window-width="1278"
     inkscape:window-height="1368"
     inkscape:window-x="2713"
     inkscape:window-y="405"
     inkscape:window-maximized="0"
     inkscape:current-layer="layer1" />
  <defs
     id="defs1">
    <clipPath
       clipPathUnits="userSpaceOnUse"
       id="clipPath154">
      <path
         d="M 0,600 H 800 V 0 H 0 Z"
         transform="translate(-255.52491,-443.47021)"
         id="path154" />
    </clipPath>
    <clipPath
       clipPathUnits="userSpaceOnUse"
       id="clipPath156">
      <path
         d="M 0,600 H 800 V 0 H 0 Z"
         transform="translate(-150,-468.99371)"
         id="path156" />
    </clipPath>
    <clipPath
       clipPathUnits="userSpaceOnUse"
       id="clipPath158">
      <path
         d="M 0,600 H 800 V 0 H 0 Z"
         transform="translate(-133.73781,-452.73101)"
         id="path158" />
    </clipPath>
    <clipPath
       clipPathUnits="userSpaceOnUse"
       id="clipPath160">
      <path
         d="M 0,600 H 800 V 0 H 0 Z"
         transform="translate(-149.9995,-429.90091)"
         id="path160" />
    </clipPath>
    <clipPath
       clipPathUnits="userSpaceOnUse"
       id="clipPath162">
      <path
         d="M 0,600 H 800 V 0 H 0 Z"
         transform="translate(-172.8301,-452.73101)"
         id="path162" />
    </clipPath>
    <clipPath
       clipPathUnits="userSpaceOnUse"
       id="clipPath164">
      <path
         d="M 0,600 H 800 V 0 H 0 Z"
         transform="translate(-150,-462.47121)"
         id="path164" />
    </clipPath>
    <clipPath
       clipPathUnits="userSpaceOnUse"
       id="clipPath166">
      <path
         d="M 0,600 H 800 V 0 H 0 Z"
         transform="translate(-138.501,-464.23101)"
         id="path166" />
    </clipPath>
    <clipPath
       clipPathUnits="userSpaceOnUse"
       id="clipPath168">
      <path
         d="M 0,600 H 800 V 0 H 0 Z"
         transform="translate(-136.1787,-438.90971)"
         id="path168" />
    </clipPath>
    <clipPath
       clipPathUnits="userSpaceOnUse"
       id="clipPath170">
      <path
         d="M 0,600 H 800 V 0 H 0 Z"
         transform="translate(-163.8213,-438.90971)"
         id="path170" />
    </clipPath>
    <clipPath
       clipPathUnits="userSpaceOnUse"
       id="clipPath172">
      <path
         d="M 0,600 H 800 V 0 H 0 Z"
         transform="translate(-161.49951,-464.23101)"
         id="path172" />
    </clipPath>
    <clipPath
       clipPathUnits="userSpaceOnUse"
       id="clipPath96">
      <path
         d="M 0,600 H 800 V 0 H 0 Z"
         transform="translate(-366.26611,-442.89601)"
         id="path96" />
    </clipPath>
    <clipPath
       clipPathUnits="userSpaceOnUse"
       id="clipPath54">
      <path
         d="M 0,600 H 800 V 0 H 0 Z"
         transform="translate(-472.62791,-443.96971)"
         id="path54" />
    </clipPath>
    <clipPath
       clipPathUnits="userSpaceOnUse"
       id="clipPath96-4">
      <path
         d="M 0,600 H 800 V 0 H 0 Z"
         transform="translate(-366.26611,-442.89601)"
         id="path96-3" />
    </clipPath>
    <clipPath
       clipPathUnits="userSpaceOnUse"
       id="clipPath26">
      <path
         d="M 0,600 H 800 V 0 H 0 Z"
         transform="translate(-568.05271,-430.56881)"
         id="path26" />
    </clipPath>
    <clipPath
       clipPathUnits="userSpaceOnUse"
       id="clipPath28">
      <path
         d="M 0,600 H 800 V 0 H 0 Z"
         transform="translate(-558.75592,-438.12651)"
         id="path28" />
    </clipPath>
    <clipPath
       clipPathUnits="userSpaceOnUse"
       id="clipPath30">
      <path
         d="M 0,600 H 800 V 0 H 0 Z"
         transform="translate(-563.51371,-445.68411)"
         id="path30" />
    </clipPath>
    <clipPath
       clipPathUnits="userSpaceOnUse"
       id="clipPath32">
      <path
         d="M 0,600 H 800 V 0 H 0 Z"
         transform="translate(-581.09572,-454.17041)"
         id="path32" />
    </clipPath>
    <clipPath
       clipPathUnits="userSpaceOnUse"
       id="clipPath174">
      <path
         d="M 0,600 H 800 V 0 H 0 Z"
         transform="translate(-625.96391,-456.28811)"
         id="path174" />
    </clipPath>
    <clipPath
       clipPathUnits="userSpaceOnUse"
       id="clipPath176">
      <path
         d="M 0,600 H 800 V 0 H 0 Z"
         transform="translate(-672.21782,-460.97751)"
         id="path176" />
    </clipPath>
    <clipPath
       clipPathUnits="userSpaceOnUse"
       id="clipPath178">
      <path
         d="M 0,600 H 800 V 0 H 0 Z"
         transform="translate(-666.01562,-445.71291)"
         id="path178" />
    </clipPath>
    <clipPath
       clipPathUnits="userSpaceOnUse"
       id="clipPath42">
      <path
         d="M 0,600 H 800 V 0 H 0 Z"
         transform="translate(-160.72611,-270.7354)"
         id="path42" />
    </clipPath>
    <clipPath
       clipPathUnits="userSpaceOnUse"
       id="clipPath44">
      <path
         d="M 0,600 H 800 V 0 H 0 Z"
         transform="translate(-149.2266,-265.9717)"
         id="path44" />
    </clipPath>
    <clipPath
       clipPathUnits="userSpaceOnUse"
       id="clipPath46">
      <path
         d="M 0,600 H 800 V 0 H 0 Z"
         transform="translate(-176.8696,-238.33011)"
         id="path46" />
    </clipPath>
    <clipPath
       clipPathUnits="userSpaceOnUse"
       id="clipPath48">
      <path
         d="M 0,600 H 800 V 0 H 0 Z"
         transform="translate(-183.5562,-254.4727)"
         id="path48" />
    </clipPath>
    <clipPath
       clipPathUnits="userSpaceOnUse"
       id="clipPath50">
      <path
         d="M 0,600 H 800 V 0 H 0 Z"
         transform="translate(-172.22511,-265.9717)"
         id="path50" />
    </clipPath>
    <clipPath
       clipPathUnits="userSpaceOnUse"
       id="clipPath52">
      <path
         d="M 0,600 H 800 V 0 H 0 Z"
         transform="translate(-163.8589,-255.4717)"
         id="path52" />
    </clipPath>
  </defs>
  <g
     inkscape:label="Layer 1"
     inkscape:groupmode="layer"
     id="layer1"
     transform="translate(-88.106219,-120.65)">
    <path
       id="path41"
       d="m 0,0 c -1.253,0 -2.269,1.015 -2.269,2.269 v 6.567 c 0,1.254 1.016,2.269 2.269,2.269 1.253,0 2.269,-1.015 2.269,-2.269 V 2.269 C 2.269,1.015 1.253,0 0,0"
       style="fill:#333333 icc-color(sRGB-IEC61966-2, 0.1, 0.19999695, 0.19999695, 0.19999695);fill-opacity:1;fill-rule:nonzero;stroke:none"
       transform="matrix(0.35277776,0,0,-0.35277776,104.52854,124.5676)"
       clip-path="url(#clipPath42)" />
    <path
       id="path43"
       d="m 0,0 c -0.581,0 -1.161,0.222 -1.604,0.665 l -4.644,4.644 c -0.887,0.886 -0.887,2.322 0,3.209 0.886,0.886 2.323,0.885 3.209,0 L 1.605,3.874 C 2.49,2.987 2.49,1.551 1.605,0.665 1.162,0.222 0.581,0 0,0"
       style="fill:#333333 icc-color(sRGB-IEC61966-2, 0.1, 0.19999695, 0.19999695, 0.19999695);fill-opacity:1;fill-rule:nonzero;stroke:none"
       transform="matrix(0.35277776,0,0,-0.35277776,100.47177,126.24813)"
       clip-path="url(#clipPath44)" />
    <path
       id="path45"
       d="m 0,0 c -0.581,0 -1.162,0.221 -1.605,0.664 l -4.644,4.645 c -0.886,0.884 -0.886,2.322 0,3.208 0.887,0.886 2.323,0.886 3.209,0 L 1.604,3.872 C 2.49,2.986 2.49,1.551 1.604,0.664 1.161,0.221 0.58,0 0,0"
       style="fill:#333333 icc-color(sRGB-IEC61966-2, 0.1, 0.19999695, 0.19999695, 0.19999695);fill-opacity:1;fill-rule:nonzero;stroke:none"
       transform="matrix(0.35277776,0,0,-0.35277776,110.22361,135.99947)"
       clip-path="url(#clipPath46)" />
    <path
       id="path47"
       d="m 0,0 h -6.568 c -1.253,0 -2.268,1.016 -2.268,2.27 0,1.251 1.015,2.268 2.268,2.268 H 0 C 1.253,4.538 2.269,3.521 2.269,2.27 2.269,1.016 1.253,0 0,0"
       style="fill:#333333 icc-color(sRGB-IEC61966-2, 0.1, 0.19999695, 0.19999695, 0.19999695);fill-opacity:1;fill-rule:nonzero;stroke:none"
       transform="matrix(0.35277776,0,0,-0.35277776,112.58249,130.30472)"
       clip-path="url(#clipPath48)" />
    <path
       id="path49"
       d="m 0,0 c -0.581,0 -1.161,0.222 -1.604,0.665 -0.887,0.887 -0.887,2.322 0,3.209 L 3.04,8.518 c 0.885,0.886 2.322,0.886 3.209,0 0.886,-0.887 0.886,-2.323 0,-3.209 L 1.604,0.665 C 1.162,0.222 0.581,0 0,0"
       style="fill:#333333 icc-color(sRGB-IEC61966-2, 0.1, 0.19999695, 0.19999695, 0.19999695);fill-opacity:1;fill-rule:nonzero;stroke:none"
       transform="matrix(0.35277776,0,0,-0.35277776,108.58513,126.24813)"
       clip-path="url(#clipPath50)" />
    <path
       id="path51"
       d="M 0,0 C -2.025,1.581 -4.491,2.533 -7.034,2.729 -7.69,3.742 -8.445,4.672 -9.283,5.507 -7.934,7.459 -5.68,8.74 -3.133,8.74 0.986,8.74 4.338,5.389 4.338,1.271 4.338,-0.382 3.799,-1.91 2.886,-3.148 2.107,-1.954 1.134,-0.886 0,0 m -6.072,-18.544 c -0.645,-0.152 -1.306,-0.23 -1.962,-0.23 H -38.4 c -3.139,0 -5.836,2.136 -6.56,5.195 -0.415,1.755 -0.123,3.564 0.824,5.1 0.947,1.533 2.434,2.607 4.189,3.022 0.513,0.121 1.039,0.184 1.56,0.184 0.732,0 1.456,-0.12 2.153,-0.357 0.615,-0.208 1.292,-0.141 1.857,0.181 0.564,0.324 0.962,0.874 1.093,1.511 1.173,5.699 6.254,9.834 12.082,9.834 2.301,0 4.504,-0.637 6.4,-1.789 1.814,-1.1 3.345,-2.67 4.409,-4.599 0.018,-0.03 0.035,-0.062 0.052,-0.093 0.407,-0.755 1.207,-1.215 2.065,-1.19 0.085,0.004 0.17,0.004 0.255,0.004 3.027,0 5.729,-1.578 7.238,-4.049 0.461,-0.755 0.81,-1.593 1.024,-2.495 0.148,-0.626 0.222,-1.253 0.229,-1.872 0.04,-3.882 -2.608,-7.426 -6.542,-8.357 M 8.876,1.271 c 0,6.621 -5.388,12.007 -12.009,12.007 -4.019,0 -7.584,-1.984 -9.763,-5.026 -2.489,1.406 -5.339,2.182 -8.306,2.182 -3.907,0 -7.717,-1.366 -10.727,-3.848 -2.372,-1.956 -4.164,-4.526 -5.181,-7.395 -1.287,0.149 -2.608,0.07 -3.883,-0.232 -2.933,-0.693 -5.421,-2.489 -7.005,-5.055 -1.584,-2.565 -2.073,-5.594 -1.378,-8.528 0.588,-2.488 2.021,-4.723 4.031,-6.292 1.979,-1.545 4.445,-2.396 6.945,-2.396 h 30.366 c 1.009,0 2.021,0.119 3.007,0.352 6.829,1.617 11.132,8.363 9.792,15.191 2.518,2.203 4.111,5.439 4.111,9.04"
       style="fill:#333333 icc-color(sRGB-IEC61966-2, 0.1, 0.19999695, 0.19999695, 0.19999695);fill-opacity:1;fill-rule:nonzero;stroke:none"
       transform="matrix(0.35277776,0,0,-0.35277776,105.63372,129.95229)"
       clip-path="url(#clipPath52)" />
  </g>
</svg>
