<?xml version="1.0" encoding="UTF-8" standalone="no"?>
<!-- Created with Inkscape (http://www.inkscape.org/) -->

<svg
   width="20.527449mm"
   height="15.454335mm"
   viewBox="0 0 20.527449 15.454336"
   version="1.1"
   id="svg1"
   inkscape:version="1.3.2 (091e20e, 2023-11-25, custom)"
   sodipodi:docname="partly-clear-night.svg"
   xmlns:inkscape="http://www.inkscape.org/namespaces/inkscape"
   xmlns:sodipodi="http://sodipodi.sourceforge.net/DTD/sodipodi-0.dtd"
   xmlns="http://www.w3.org/2000/svg"
   xmlns:svg="http://www.w3.org/2000/svg">
  <sodipodi:namedview
     id="namedview1"
     pagecolor="#505050"
     bordercolor="#eeeeee"
     borderopacity="1"
     inkscape:showpageshadow="0"
     inkscape:pageopacity="0"
     inkscape:pagecheckerboard="0"
     inkscape:deskcolor="#505050"
     inkscape:document-units="mm"
     inkscape:zoom="1.0520974"
     inkscape:cx="83.167205"
     inkscape:cy="1.9009647"
     inkscape:window-width="1278"
     inkscape:window-height="1368"
     inkscape:window-x="2713"
     inkscape:window-y="405"
     inkscape:window-maximized="0"
     inkscape:current-layer="layer1" />
  <defs
     id="defs1">
    <clipPath
       clipPathUnits="userSpaceOnUse"
       id="clipPath154">
      <path
         d="M 0,600 H 800 V 0 H 0 Z"
         transform="translate(-255.52491,-443.47021)"
         id="path154" />
    </clipPath>
    <clipPath
       clipPathUnits="userSpaceOnUse"
       id="clipPath156">
      <path
         d="M 0,600 H 800 V 0 H 0 Z"
         transform="translate(-150,-468.99371)"
         id="path156" />
    </clipPath>
    <clipPath
       clipPathUnits="userSpaceOnUse"
       id="clipPath158">
      <path
         d="M 0,600 H 800 V 0 H 0 Z"
         transform="translate(-133.73781,-452.73101)"
         id="path158" />
    </clipPath>
    <clipPath
       clipPathUnits="userSpaceOnUse"
       id="clipPath160">
      <path
         d="M 0,600 H 800 V 0 H 0 Z"
         transform="translate(-149.9995,-429.90091)"
         id="path160" />
    </clipPath>
    <clipPath
       clipPathUnits="userSpaceOnUse"
       id="clipPath162">
      <path
         d="M 0,600 H 800 V 0 H 0 Z"
         transform="translate(-172.8301,-452.73101)"
         id="path162" />
    </clipPath>
    <clipPath
       clipPathUnits="userSpaceOnUse"
       id="clipPath164">
      <path
         d="M 0,600 H 800 V 0 H 0 Z"
         transform="translate(-150,-462.47121)"
         id="path164" />
    </clipPath>
    <clipPath
       clipPathUnits="userSpaceOnUse"
       id="clipPath166">
      <path
         d="M 0,600 H 800 V 0 H 0 Z"
         transform="translate(-138.501,-464.23101)"
         id="path166" />
    </clipPath>
    <clipPath
       clipPathUnits="userSpaceOnUse"
       id="clipPath168">
      <path
         d="M 0,600 H 800 V 0 H 0 Z"
         transform="translate(-136.1787,-438.90971)"
         id="path168" />
    </clipPath>
    <clipPath
       clipPathUnits="userSpaceOnUse"
       id="clipPath170">
      <path
         d="M 0,600 H 800 V 0 H 0 Z"
         transform="translate(-163.8213,-438.90971)"
         id="path170" />
    </clipPath>
    <clipPath
       clipPathUnits="userSpaceOnUse"
       id="clipPath172">
      <path
         d="M 0,600 H 800 V 0 H 0 Z"
         transform="translate(-161.49951,-464.23101)"
         id="path172" />
    </clipPath>
    <clipPath
       clipPathUnits="userSpaceOnUse"
       id="clipPath96">
      <path
         d="M 0,600 H 800 V 0 H 0 Z"
         transform="translate(-366.26611,-442.89601)"
         id="path96" />
    </clipPath>
    <clipPath
       clipPathUnits="userSpaceOnUse"
       id="clipPath54">
      <path
         d="M 0,600 H 800 V 0 H 0 Z"
         transform="translate(-472.62791,-443.96971)"
         id="path54" />
    </clipPath>
    <clipPath
       clipPathUnits="userSpaceOnUse"
       id="clipPath96-4">
      <path
         d="M 0,600 H 800 V 0 H 0 Z"
         transform="translate(-366.26611,-442.89601)"
         id="path96-3" />
    </clipPath>
    <clipPath
       clipPathUnits="userSpaceOnUse"
       id="clipPath26">
      <path
         d="M 0,600 H 800 V 0 H 0 Z"
         transform="translate(-568.05271,-430.56881)"
         id="path26" />
    </clipPath>
    <clipPath
       clipPathUnits="userSpaceOnUse"
       id="clipPath28">
      <path
         d="M 0,600 H 800 V 0 H 0 Z"
         transform="translate(-558.75592,-438.12651)"
         id="path28" />
    </clipPath>
    <clipPath
       clipPathUnits="userSpaceOnUse"
       id="clipPath30">
      <path
         d="M 0,600 H 800 V 0 H 0 Z"
         transform="translate(-563.51371,-445.68411)"
         id="path30" />
    </clipPath>
    <clipPath
       clipPathUnits="userSpaceOnUse"
       id="clipPath32">
      <path
         d="M 0,600 H 800 V 0 H 0 Z"
         transform="translate(-581.09572,-454.17041)"
         id="path32" />
    </clipPath>
    <clipPath
       clipPathUnits="userSpaceOnUse"
       id="clipPath174">
      <path
         d="M 0,600 H 800 V 0 H 0 Z"
         transform="translate(-625.96391,-456.28811)"
         id="path174" />
    </clipPath>
    <clipPath
       clipPathUnits="userSpaceOnUse"
       id="clipPath176">
      <path
         d="M 0,600 H 800 V 0 H 0 Z"
         transform="translate(-672.21782,-460.97751)"
         id="path176" />
    </clipPath>
    <clipPath
       clipPathUnits="userSpaceOnUse"
       id="clipPath178">
      <path
         d="M 0,600 H 800 V 0 H 0 Z"
         transform="translate(-666.01562,-445.71291)"
         id="path178" />
    </clipPath>
    <clipPath
       clipPathUnits="userSpaceOnUse"
       id="clipPath42">
      <path
         d="M 0,600 H 800 V 0 H 0 Z"
         transform="translate(-160.72611,-270.7354)"
         id="path42" />
    </clipPath>
    <clipPath
       clipPathUnits="userSpaceOnUse"
       id="clipPath44">
      <path
         d="M 0,600 H 800 V 0 H 0 Z"
         transform="translate(-149.2266,-265.9717)"
         id="path44" />
    </clipPath>
    <clipPath
       clipPathUnits="userSpaceOnUse"
       id="clipPath46">
      <path
         d="M 0,600 H 800 V 0 H 0 Z"
         transform="translate(-176.8696,-238.33011)"
         id="path46" />
    </clipPath>
    <clipPath
       clipPathUnits="userSpaceOnUse"
       id="clipPath48">
      <path
         d="M 0,600 H 800 V 0 H 0 Z"
         transform="translate(-183.5562,-254.4727)"
         id="path48" />
    </clipPath>
    <clipPath
       clipPathUnits="userSpaceOnUse"
       id="clipPath50">
      <path
         d="M 0,600 H 800 V 0 H 0 Z"
         transform="translate(-172.22511,-265.9717)"
         id="path50" />
    </clipPath>
    <clipPath
       clipPathUnits="userSpaceOnUse"
       id="clipPath52">
      <path
         d="M 0,600 H 800 V 0 H 0 Z"
         transform="translate(-163.8589,-255.4717)"
         id="path52" />
    </clipPath>
    <clipPath
       clipPathUnits="userSpaceOnUse"
       id="clipPath180">
      <path
         d="M 0,600 H 800 V 0 H 0 Z"
         transform="translate(-264.97221,-236.92771)"
         id="path180" />
    </clipPath>
  </defs>
  <g
     inkscape:label="Layer 1"
     inkscape:groupmode="layer"
     id="layer1"
     transform="translate(-83.079134,-127.79375)">
    <path
       id="path179"
       d="m 0,0 c -0.645,-0.152 -1.306,-0.229 -1.962,-0.229 h -30.366 c -3.138,0 -5.836,2.135 -6.56,5.194 -0.415,1.755 -0.122,3.566 0.824,5.099 0.947,1.534 2.435,2.609 4.189,3.024 0.513,0.121 1.039,0.183 1.561,0.183 0.731,0 1.456,-0.121 2.152,-0.357 0.616,-0.207 1.292,-0.142 1.857,0.182 0.564,0.324 0.962,0.873 1.094,1.51 1.172,5.699 6.253,9.835 12.081,9.835 2.43,0 4.752,-0.712 6.717,-1.988 1.704,-1.106 3.141,-2.637 4.144,-4.494 0.408,-0.755 1.207,-1.213 2.065,-1.188 0.085,10e-4 0.17,0.003 0.255,0.003 1.868,0 3.613,-0.601 5.029,-1.643 1.58,-1.16 2.752,-2.87 3.233,-4.901 C 7.393,5.669 4.561,1.08 0,0 m -2.684,32.271 c 0.3,-2.584 1.441,-5.088 3.422,-7.07 1.983,-1.982 4.487,-3.122 7.071,-3.422 -1.058,-1.037 -2.351,-1.692 -3.706,-1.967 -1.57,0.824 -3.299,1.325 -5.065,1.462 -0.996,1.538 -2.221,2.883 -3.616,4 -0.603,2.422 0.028,5.092 1.894,6.997 m 16.383,-9.695 c 0.761,1.876 1.027,3.906 0.797,5.891 -0.018,-0.02 -0.037,-0.037 -0.055,-0.057 -1.244,-1.244 -2.823,-1.952 -4.45,-2.126 -2.156,-0.231 -4.394,0.477 -6.043,2.126 -1.649,1.65 -2.359,3.888 -2.127,6.044 0.174,1.626 0.882,3.205 2.127,4.45 0.018,0.018 0.037,0.037 0.056,0.055 -1.984,0.229 -4.014,-0.036 -5.891,-0.799 -1.438,-0.582 -2.785,-1.458 -3.951,-2.625 -2.115,-2.114 -3.272,-4.824 -3.473,-7.591 -1.833,0.675 -3.799,1.035 -5.819,1.035 -3.907,0 -7.717,-1.367 -10.727,-3.849 -2.372,-1.955 -4.164,-4.526 -5.181,-7.394 -1.287,0.148 -2.608,0.07 -3.882,-0.233 -2.934,-0.693 -5.422,-2.489 -7.005,-5.055 -1.584,-2.565 -2.074,-5.594 -1.379,-8.528 0.589,-2.486 2.021,-4.722 4.032,-6.292 1.979,-1.546 4.444,-2.397 6.944,-2.397 h 30.367 c 1.008,0 2.02,0.121 3.006,0.353 6.996,1.656 11.34,8.695 9.684,15.691 -0.452,1.913 -1.336,3.695 -2.562,5.208 1.045,0.549 2.028,1.262 2.906,2.141 1.167,1.167 2.043,2.515 2.626,3.952"
       style="fill:#333333 icc-color(sRGB-IEC61966-2, 0.1, 0.19999695, 0.19999695, 0.19999695);fill-opacity:1;fill-rule:nonzero;stroke:none"
       transform="matrix(0.35277776,0,0,-0.35277776,98.464494,141.56569)"
       clip-path="url(#clipPath180)" />
  </g>
</svg>
