<?xml version="1.0" encoding="UTF-8" standalone="no"?>
<!-- Created with Inkscape (http://www.inkscape.org/) -->

<svg
   width="19.29455mm"
   height="16.209963mm"
   viewBox="0 0 19.29455 16.209964"
   version="1.1"
   id="svg1"
   inkscape:version="1.3.2 (091e20e, 2023-11-25, custom)"
   sodipodi:docname="showers.svg"
   xmlns:inkscape="http://www.inkscape.org/namespaces/inkscape"
   xmlns:sodipodi="http://sodipodi.sourceforge.net/DTD/sodipodi-0.dtd"
   xmlns="http://www.w3.org/2000/svg"
   xmlns:svg="http://www.w3.org/2000/svg">
  <sodipodi:namedview
     id="namedview1"
     pagecolor="#505050"
     bordercolor="#eeeeee"
     borderopacity="1"
     inkscape:showpageshadow="0"
     inkscape:pageopacity="0"
     inkscape:pagecheckerboard="0"
     inkscape:deskcolor="#505050"
     inkscape:document-units="mm"
     inkscape:zoom="1.0520974"
     inkscape:cx="25.187782"
     inkscape:cy="-58.929905"
     inkscape:window-width="1278"
     inkscape:window-height="1368"
     inkscape:window-x="2713"
     inkscape:window-y="405"
     inkscape:window-maximized="0"
     inkscape:current-layer="layer1" />
  <defs
     id="defs1">
    <clipPath
       clipPathUnits="userSpaceOnUse"
       id="clipPath154">
      <path
         d="M 0,600 H 800 V 0 H 0 Z"
         transform="translate(-255.52491,-443.47021)"
         id="path154" />
    </clipPath>
    <clipPath
       clipPathUnits="userSpaceOnUse"
       id="clipPath156">
      <path
         d="M 0,600 H 800 V 0 H 0 Z"
         transform="translate(-150,-468.99371)"
         id="path156" />
    </clipPath>
    <clipPath
       clipPathUnits="userSpaceOnUse"
       id="clipPath158">
      <path
         d="M 0,600 H 800 V 0 H 0 Z"
         transform="translate(-133.73781,-452.73101)"
         id="path158" />
    </clipPath>
    <clipPath
       clipPathUnits="userSpaceOnUse"
       id="clipPath160">
      <path
         d="M 0,600 H 800 V 0 H 0 Z"
         transform="translate(-149.9995,-429.90091)"
         id="path160" />
    </clipPath>
    <clipPath
       clipPathUnits="userSpaceOnUse"
       id="clipPath162">
      <path
         d="M 0,600 H 800 V 0 H 0 Z"
         transform="translate(-172.8301,-452.73101)"
         id="path162" />
    </clipPath>
    <clipPath
       clipPathUnits="userSpaceOnUse"
       id="clipPath164">
      <path
         d="M 0,600 H 800 V 0 H 0 Z"
         transform="translate(-150,-462.47121)"
         id="path164" />
    </clipPath>
    <clipPath
       clipPathUnits="userSpaceOnUse"
       id="clipPath166">
      <path
         d="M 0,600 H 800 V 0 H 0 Z"
         transform="translate(-138.501,-464.23101)"
         id="path166" />
    </clipPath>
    <clipPath
       clipPathUnits="userSpaceOnUse"
       id="clipPath168">
      <path
         d="M 0,600 H 800 V 0 H 0 Z"
         transform="translate(-136.1787,-438.90971)"
         id="path168" />
    </clipPath>
    <clipPath
       clipPathUnits="userSpaceOnUse"
       id="clipPath170">
      <path
         d="M 0,600 H 800 V 0 H 0 Z"
         transform="translate(-163.8213,-438.90971)"
         id="path170" />
    </clipPath>
    <clipPath
       clipPathUnits="userSpaceOnUse"
       id="clipPath172">
      <path
         d="M 0,600 H 800 V 0 H 0 Z"
         transform="translate(-161.49951,-464.23101)"
         id="path172" />
    </clipPath>
    <clipPath
       clipPathUnits="userSpaceOnUse"
       id="clipPath96">
      <path
         d="M 0,600 H 800 V 0 H 0 Z"
         transform="translate(-366.26611,-442.89601)"
         id="path96" />
    </clipPath>
    <clipPath
       clipPathUnits="userSpaceOnUse"
       id="clipPath54">
      <path
         d="M 0,600 H 800 V 0 H 0 Z"
         transform="translate(-472.62791,-443.96971)"
         id="path54" />
    </clipPath>
    <clipPath
       clipPathUnits="userSpaceOnUse"
       id="clipPath96-4">
      <path
         d="M 0,600 H 800 V 0 H 0 Z"
         transform="translate(-366.26611,-442.89601)"
         id="path96-3" />
    </clipPath>
    <clipPath
       clipPathUnits="userSpaceOnUse"
       id="clipPath26">
      <path
         d="M 0,600 H 800 V 0 H 0 Z"
         transform="translate(-568.05271,-430.56881)"
         id="path26" />
    </clipPath>
    <clipPath
       clipPathUnits="userSpaceOnUse"
       id="clipPath28">
      <path
         d="M 0,600 H 800 V 0 H 0 Z"
         transform="translate(-558.75592,-438.12651)"
         id="path28" />
    </clipPath>
    <clipPath
       clipPathUnits="userSpaceOnUse"
       id="clipPath30">
      <path
         d="M 0,600 H 800 V 0 H 0 Z"
         transform="translate(-563.51371,-445.68411)"
         id="path30" />
    </clipPath>
    <clipPath
       clipPathUnits="userSpaceOnUse"
       id="clipPath32">
      <path
         d="M 0,600 H 800 V 0 H 0 Z"
         transform="translate(-581.09572,-454.17041)"
         id="path32" />
    </clipPath>
    <clipPath
       clipPathUnits="userSpaceOnUse"
       id="clipPath174">
      <path
         d="M 0,600 H 800 V 0 H 0 Z"
         transform="translate(-625.96391,-456.28811)"
         id="path174" />
    </clipPath>
    <clipPath
       clipPathUnits="userSpaceOnUse"
       id="clipPath176">
      <path
         d="M 0,600 H 800 V 0 H 0 Z"
         transform="translate(-672.21782,-460.97751)"
         id="path176" />
    </clipPath>
    <clipPath
       clipPathUnits="userSpaceOnUse"
       id="clipPath178">
      <path
         d="M 0,600 H 800 V 0 H 0 Z"
         transform="translate(-666.01562,-445.71291)"
         id="path178" />
    </clipPath>
    <clipPath
       clipPathUnits="userSpaceOnUse"
       id="clipPath42">
      <path
         d="M 0,600 H 800 V 0 H 0 Z"
         transform="translate(-160.72611,-270.7354)"
         id="path42" />
    </clipPath>
    <clipPath
       clipPathUnits="userSpaceOnUse"
       id="clipPath44">
      <path
         d="M 0,600 H 800 V 0 H 0 Z"
         transform="translate(-149.2266,-265.9717)"
         id="path44" />
    </clipPath>
    <clipPath
       clipPathUnits="userSpaceOnUse"
       id="clipPath46">
      <path
         d="M 0,600 H 800 V 0 H 0 Z"
         transform="translate(-176.8696,-238.33011)"
         id="path46" />
    </clipPath>
    <clipPath
       clipPathUnits="userSpaceOnUse"
       id="clipPath48">
      <path
         d="M 0,600 H 800 V 0 H 0 Z"
         transform="translate(-183.5562,-254.4727)"
         id="path48" />
    </clipPath>
    <clipPath
       clipPathUnits="userSpaceOnUse"
       id="clipPath50">
      <path
         d="M 0,600 H 800 V 0 H 0 Z"
         transform="translate(-172.22511,-265.9717)"
         id="path50" />
    </clipPath>
    <clipPath
       clipPathUnits="userSpaceOnUse"
       id="clipPath52">
      <path
         d="M 0,600 H 800 V 0 H 0 Z"
         transform="translate(-163.8589,-255.4717)"
         id="path52" />
    </clipPath>
    <clipPath
       clipPathUnits="userSpaceOnUse"
       id="clipPath180">
      <path
         d="M 0,600 H 800 V 0 H 0 Z"
         transform="translate(-264.97221,-236.92771)"
         id="path180" />
    </clipPath>
    <clipPath
       clipPathUnits="userSpaceOnUse"
       id="clipPath114">
      <path
         d="M 0,600 H 800 V 0 H 0 Z"
         transform="translate(-145.1836,-342.72311)"
         id="path114" />
    </clipPath>
    <clipPath
       clipPathUnits="userSpaceOnUse"
       id="clipPath116">
      <path
         d="M 0,600 H 800 V 0 H 0 Z"
         transform="translate(-153.87741,-342.72311)"
         id="path116" />
    </clipPath>
    <clipPath
       clipPathUnits="userSpaceOnUse"
       id="clipPath118">
      <path
         d="M 0,600 H 800 V 0 H 0 Z"
         transform="translate(-176.9946,-359.78861)"
         id="path118" />
    </clipPath>
  </defs>
  <g
     inkscape:label="Layer 1"
     inkscape:groupmode="layer"
     id="layer1"
     transform="translate(-98.424968,-143.93333)">
    <path
       id="path113"
       d="M 0,0 C -0.289,0 -0.583,0.056 -0.867,0.174 -2.025,0.653 -2.575,1.98 -2.096,3.14 L 0.22,8.729 C 0.7,9.886 2.027,10.437 3.185,9.957 4.342,9.478 4.893,8.15 4.413,6.993 L 2.097,1.401 C 1.735,0.528 0.89,0 0,0 m -2.888,-6.971 c -0.289,0 -0.583,0.055 -0.867,0.172 -1.159,0.48 -1.708,1.808 -1.228,2.966 l 0.572,1.381 c 0.479,1.158 1.807,1.707 2.965,1.228 1.157,-0.479 1.707,-1.807 1.228,-2.964 l -0.573,-1.381 c -0.362,-0.875 -1.207,-1.402 -2.097,-1.402"
       style="fill:#333333 icc-color(sRGB-IEC61966-2, 0.1, 0.19999695, 0.19999695, 0.19999695);fill-opacity:1;fill-rule:nonzero;stroke:none"
       transform="matrix(0.35277776,0,0,-0.35277776,106.37307,156.19924)"
       clip-path="url(#clipPath114)" />
    <path
       id="path115"
       d="M 0,0 C -0.29,0 -0.583,0.056 -0.868,0.174 -2.025,0.653 -2.575,1.98 -2.095,3.14 L 0.22,8.729 C 0.7,9.886 2.027,10.437 3.185,9.957 4.343,9.478 4.893,8.15 4.413,6.993 L 2.097,1.401 C 1.735,0.528 0.89,0 0,0 m -4.631,-11.18 c -0.29,0 -0.583,0.055 -0.868,0.174 -1.158,0.478 -1.707,1.806 -1.228,2.964 l 2.316,5.59 c 0.48,1.158 1.807,1.707 2.965,1.228 1.157,-0.479 1.707,-1.807 1.228,-2.964 l -2.316,-5.59 c -0.362,-0.874 -1.207,-1.402 -2.097,-1.402"
       style="fill:#333333 icc-color(sRGB-IEC61966-2, 0.1, 0.19999695, 0.19999695, 0.19999695);fill-opacity:1;fill-rule:nonzero;stroke:none"
       transform="matrix(0.35277776,0,0,-0.35277776,109.44005,156.19924)"
       clip-path="url(#clipPath116)" />
    <path
       id="path117"
       d="m 0,0 c -0.68,2.873 -2.334,5.455 -4.657,7.27 -2.025,1.581 -4.491,2.533 -7.034,2.729 -3.098,4.784 -8.411,7.705 -14.168,7.705 -3.908,0 -7.717,-1.366 -10.727,-3.849 -2.372,-1.956 -4.164,-4.526 -5.182,-7.394 -1.285,0.147 -2.607,0.069 -3.882,-0.232 -2.934,-0.695 -5.421,-2.49 -7.005,-5.055 -1.583,-2.567 -2.073,-5.595 -1.378,-8.528 0.588,-2.488 2.02,-4.723 4.031,-6.292 1.979,-1.546 4.445,-2.397 6.944,-2.397 h 0.072 5.624 l 1.88,4.538 h -7.504 -0.018 -0.054 c -3.138,0 -5.835,2.137 -6.559,5.195 -0.416,1.755 -0.122,3.567 0.824,5.1 0.946,1.533 2.434,2.607 4.189,3.022 0.513,0.122 1.038,0.184 1.56,0.184 0.732,0 1.456,-0.12 2.152,-0.356 0.617,-0.208 1.293,-0.142 1.857,0.18 0.565,0.325 0.963,0.874 1.095,1.512 1.172,5.698 6.253,9.834 12.081,9.834 4.538,0 8.7,-2.483 10.86,-6.481 0.409,-0.755 1.208,-1.216 2.066,-1.19 0.085,0.003 0.169,0.004 0.255,0.004 3.952,0 7.349,-2.691 8.262,-6.543 1.079,-4.561 -1.753,-9.15 -6.313,-10.23 -0.645,-0.153 -1.306,-0.231 -1.962,-0.231 h -4.027 l -1.88,-4.538 h 5.908 c 1.008,0 2.02,0.119 3.006,0.353 C -2.688,-14.034 1.656,-6.995 0,0"
       style="fill:#333333 icc-color(sRGB-IEC61966-2, 0.1, 0.19999695, 0.19999695, 0.19999695);fill-opacity:1;fill-rule:nonzero;stroke:none"
       transform="matrix(0.35277776,0,0,-0.35277776,117.59529,150.17891)"
       clip-path="url(#clipPath118)" />
  </g>
</svg>
