<?xml version="1.0" encoding="UTF-8" standalone="no"?>
<!-- Created with Inkscape (http://www.inkscape.org/) -->

<svg
   width="19.294615mm"
   height="17.415264mm"
   viewBox="0 0 19.294615 17.415264"
   version="1.1"
   id="svg1"
   inkscape:version="1.3.2 (091e20e, 2023-11-25, custom)"
   sodipodi:docname="showers.svg"
   xmlns:inkscape="http://www.inkscape.org/namespaces/inkscape"
   xmlns:sodipodi="http://sodipodi.sourceforge.net/DTD/sodipodi-0.dtd"
   xmlns="http://www.w3.org/2000/svg"
   xmlns:svg="http://www.w3.org/2000/svg">
  <sodipodi:namedview
     id="namedview1"
     pagecolor="#505050"
     bordercolor="#eeeeee"
     borderopacity="1"
     inkscape:showpageshadow="0"
     inkscape:pageopacity="0"
     inkscape:pagecheckerboard="0"
     inkscape:deskcolor="#505050"
     inkscape:document-units="mm"
     inkscape:zoom="1.0520974"
     inkscape:cx="-68.909972"
     inkscape:cy="92.672032"
     inkscape:window-width="2560"
     inkscape:window-height="1377"
     inkscape:window-x="1432"
     inkscape:window-y="397"
     inkscape:window-maximized="1"
     inkscape:current-layer="layer1" />
  <defs
     id="defs1">
    <clipPath
       clipPathUnits="userSpaceOnUse"
       id="clipPath20">
      <path
         d="M 0,600 H 800 V 0 H 0 Z"
         transform="translate(-242.2954,-335.64891)"
         id="path20" />
    </clipPath>
    <clipPath
       clipPathUnits="userSpaceOnUse"
       id="clipPath22">
      <path
         d="M 0,600 H 800 V 0 H 0 Z"
         transform="translate(-276.9946,-359.68651)"
         id="path22" />
    </clipPath>
    <clipPath
       clipPathUnits="userSpaceOnUse"
       id="clipPath24">
      <path
         d="M 0,600 H 800 V 0 H 0 Z"
         transform="translate(-247.83111,-328.02341)"
         id="path24" />
    </clipPath>
  </defs>
  <g
     inkscape:label="Layer 1"
     inkscape:groupmode="layer"
     id="layer1"
     transform="translate(-123.29583,-124.08959)">
    <path
       id="path19"
       d="M 0,0 C -0.29,0 -0.583,0.056 -0.867,0.174 -2.025,0.653 -2.575,1.98 -2.095,3.138 l 5.203,12.563 c 0.479,1.157 1.807,1.707 2.965,1.228 1.157,-0.48 1.707,-1.807 1.228,-2.965 L 2.097,1.402 C 1.735,0.528 0.89,0 0,0"
       style="fill:#333333 icc-color(sRGB-IEC61966-2, 0.1, 0.19999695, 0.19999695, 0.19999695);fill-opacity:1;fill-rule:nonzero;stroke:none"
       transform="matrix(0.35277776,0,0,-0.35277776,130.22511,138.81474)"
       clip-path="url(#clipPath20)" />
    <path
       id="path21"
       d="m 0,0 c -0.681,2.873 -2.334,5.455 -4.657,7.269 -2.026,1.581 -4.492,2.533 -7.035,2.73 -3.097,4.784 -8.41,7.704 -14.167,7.704 -3.908,0 -7.717,-1.366 -10.727,-3.848 -2.372,-1.955 -4.164,-4.527 -5.182,-7.394 -1.286,0.147 -2.607,0.069 -3.882,-0.232 -2.933,-0.695 -5.421,-2.49 -7.005,-5.056 -1.584,-2.566 -2.073,-5.594 -1.378,-8.528 0.588,-2.487 2.02,-4.722 4.031,-6.292 1.979,-1.546 4.445,-2.396 6.944,-2.396 h 0.072 5.624 l 1.88,4.538 h -7.504 -0.019 -0.053 c -3.138,0 -5.836,2.136 -6.559,5.195 -0.415,1.755 -0.123,3.566 0.824,5.1 0.947,1.533 2.434,2.607 4.189,3.022 0.513,0.122 1.038,0.184 1.56,0.184 0.732,0 1.456,-0.12 2.152,-0.356 0.616,-0.209 1.292,-0.143 1.857,0.181 0.565,0.323 0.963,0.873 1.094,1.511 1.172,5.697 6.254,9.834 12.082,9.834 4.538,0 8.7,-2.484 10.86,-6.482 0.408,-0.755 1.207,-1.216 2.065,-1.189 0.085,0.003 0.17,0.004 0.256,0.004 3.952,0 7.35,-2.691 8.261,-6.544 1.08,-4.561 -1.752,-9.15 -6.312,-10.23 -0.646,-0.152 -1.306,-0.229 -1.962,-0.23 h -4.027 l -1.88,-4.538 h 5.908 c 1.008,0 2.02,0.119 3.006,0.352 C -2.688,-14.035 1.656,-6.996 0,0"
       style="fill:#333333 icc-color(sRGB-IEC61966-2, 0.1, 0.19999695, 0.19999695, 0.19999695);fill-opacity:1;fill-rule:nonzero;stroke:none"
       transform="matrix(0.35277776,0,0,-0.35277776,142.46622,130.33481)"
       clip-path="url(#clipPath22)" />
    <path
       id="path23"
       d="m 0,0 c -0.29,0 -0.584,0.056 -0.868,0.173 -1.157,0.48 -1.708,1.807 -1.228,2.965 l 8.363,20.188 c 0.479,1.158 1.806,1.708 2.964,1.229 1.158,-0.48 1.707,-1.808 1.228,-2.965 L 2.097,1.401 C 1.735,0.527 0.89,0 0,0"
       style="fill:#333333 icc-color(sRGB-IEC61966-2, 0.1, 0.19999695, 0.19999695, 0.19999695);fill-opacity:1;fill-rule:nonzero;stroke:none"
       transform="matrix(0.35277776,0,0,-0.35277776,132.17799,141.50485)"
       clip-path="url(#clipPath24)" />
    <path
       id="path1"
       d="M 0,0 C -0.29,0 -0.583,0.056 -0.867,0.174 -2.025,0.653 -2.575,1.98 -2.095,3.138 l 5.203,12.563 c 0.479,1.157 1.807,1.707 2.965,1.228 1.157,-0.48 1.707,-1.807 1.228,-2.965 L 2.097,1.402 C 1.735,0.528 0.89,0 0,0"
       style="fill:#333333 icc-color(sRGB-IEC61966-2, 0.1, 0.19999695, 0.19999695, 0.19999695);fill-opacity:1;fill-rule:nonzero;stroke:none"
       transform="matrix(0.35277776,0,0,-0.35277776,130.22511,138.81474)"
       clip-path="url(#clipPath20)" />
    <path
       id="path2"
       d="m 0,0 c -0.681,2.873 -2.334,5.455 -4.657,7.269 -2.026,1.581 -4.492,2.533 -7.035,2.73 -3.097,4.784 -8.41,7.704 -14.167,7.704 -3.908,0 -7.717,-1.366 -10.727,-3.848 -2.372,-1.955 -4.164,-4.527 -5.182,-7.394 -1.286,0.147 -2.607,0.069 -3.882,-0.232 -2.933,-0.695 -5.421,-2.49 -7.005,-5.056 -1.584,-2.566 -2.073,-5.594 -1.378,-8.528 0.588,-2.487 2.02,-4.722 4.031,-6.292 1.979,-1.546 4.445,-2.396 6.944,-2.396 h 0.072 5.624 l 1.88,4.538 h -7.504 -0.019 -0.053 c -3.138,0 -5.836,2.136 -6.559,5.195 -0.415,1.755 -0.123,3.566 0.824,5.1 0.947,1.533 2.434,2.607 4.189,3.022 0.513,0.122 1.038,0.184 1.56,0.184 0.732,0 1.456,-0.12 2.152,-0.356 0.616,-0.209 1.292,-0.143 1.857,0.181 0.565,0.323 0.963,0.873 1.094,1.511 1.172,5.697 6.254,9.834 12.082,9.834 4.538,0 8.7,-2.484 10.86,-6.482 0.408,-0.755 1.207,-1.216 2.065,-1.189 0.085,0.003 0.17,0.004 0.256,0.004 3.952,0 7.35,-2.691 8.261,-6.544 1.08,-4.561 -1.752,-9.15 -6.312,-10.23 -0.646,-0.152 -1.306,-0.229 -1.962,-0.23 h -4.027 l -1.88,-4.538 h 5.908 c 1.008,0 2.02,0.119 3.006,0.352 C -2.688,-14.035 1.656,-6.996 0,0"
       style="fill:#333333 icc-color(sRGB-IEC61966-2, 0.1, 0.19999695, 0.19999695, 0.19999695);fill-opacity:1;fill-rule:nonzero;stroke:none"
       transform="matrix(0.35277776,0,0,-0.35277776,142.46622,130.33481)"
       clip-path="url(#clipPath22)" />
    <path
       id="path3"
       d="m 0,0 c -0.29,0 -0.584,0.056 -0.868,0.173 -1.157,0.48 -1.708,1.807 -1.228,2.965 l 8.363,20.188 c 0.479,1.158 1.806,1.708 2.964,1.229 1.158,-0.48 1.707,-1.808 1.228,-2.965 L 2.097,1.401 C 1.735,0.527 0.89,0 0,0"
       style="fill:#333333 icc-color(sRGB-IEC61966-2, 0.1, 0.19999695, 0.19999695, 0.19999695);fill-opacity:1;fill-rule:nonzero;stroke:none"
       transform="matrix(0.35277776,0,0,-0.35277776,132.17799,141.50485)"
       clip-path="url(#clipPath24)" />
  </g>
</svg>
