<?xml version="1.0" encoding="UTF-8" standalone="no"?>
<!-- Created with Inkscape (http://www.inkscape.org/) -->

<svg
   width="19.294352mm"
   height="16.122231mm"
   viewBox="0 0 19.294352 16.122231"
   version="1.1"
   id="svg1"
   inkscape:version="1.3.2 (091e20e, 2023-11-25, custom)"
   sodipodi:docname="snow.svg"
   xmlns:inkscape="http://www.inkscape.org/namespaces/inkscape"
   xmlns:sodipodi="http://sodipodi.sourceforge.net/DTD/sodipodi-0.dtd"
   xmlns="http://www.w3.org/2000/svg"
   xmlns:svg="http://www.w3.org/2000/svg">
  <sodipodi:namedview
     id="namedview1"
     pagecolor="#505050"
     bordercolor="#eeeeee"
     borderopacity="1"
     inkscape:showpageshadow="0"
     inkscape:pageopacity="0"
     inkscape:pagecheckerboard="0"
     inkscape:deskcolor="#505050"
     inkscape:document-units="mm"
     inkscape:zoom="1.0520974"
     inkscape:cx="101.22637"
     inkscape:cy="104.07782"
     inkscape:window-width="2560"
     inkscape:window-height="1377"
     inkscape:window-x="1432"
     inkscape:window-y="397"
     inkscape:window-maximized="1"
     inkscape:current-layer="layer1" />
  <defs
     id="defs1">
    <clipPath
       clipPathUnits="userSpaceOnUse"
       id="clipPath66">
      <path
         d="M 0,600 H 800 V 0 H 0 Z"
         transform="translate(-360.56591,-236.09371)"
         id="path66" />
    </clipPath>
    <clipPath
       clipPathUnits="userSpaceOnUse"
       id="clipPath68">
      <path
         d="M 0,600 H 800 V 0 H 0 Z"
         transform="translate(-353.72611,-245.53711)"
         id="path68" />
    </clipPath>
    <clipPath
       clipPathUnits="userSpaceOnUse"
       id="clipPath70">
      <path
         d="M 0,600 H 800 V 0 H 0 Z"
         transform="translate(-346.91651,-236.09371)"
         id="path70" />
    </clipPath>
    <clipPath
       clipPathUnits="userSpaceOnUse"
       id="clipPath72">
      <path
         d="M 0,600 H 800 V 0 H 0 Z"
         transform="translate(-376.99371,-260.1475)"
         id="path72" />
    </clipPath>
  </defs>
  <g
     inkscape:label="Layer 1"
     inkscape:groupmode="layer"
     id="layer1"
     transform="translate(-78.316672,-120.91458)">
    <path
       id="path65"
       d="M 0,0 -1.463,0.846 0.001,1.69 C 0.543,2.004 0.729,2.697 0.416,3.24 0.103,3.783 -0.591,3.969 -1.134,3.655 L -2.597,2.811 v 1.671 c 0,0.626 -0.508,1.135 -1.134,1.135 -0.627,0 -1.135,-0.509 -1.135,-1.135 V 2.811 L -6.314,3.646 C -6.856,3.96 -7.551,3.773 -7.864,3.23 -8.178,2.688 -7.991,1.994 -7.449,1.682 L -6.001,0.846 -7.449,0.01 c -0.542,-0.314 -0.729,-1.008 -0.415,-1.55 0.211,-0.364 0.592,-0.567 0.983,-0.567 0.194,0 0.388,0.048 0.567,0.151 l 1.448,0.836 v -1.69 c 0,-0.627 0.508,-1.134 1.135,-1.134 0.626,0 1.134,0.507 1.134,1.134 v 1.69 l 1.463,-0.845 c 0.179,-0.103 0.373,-0.152 0.567,-0.152 0.392,0 0.773,0.203 0.983,0.567 C 0.729,-1.007 0.543,-0.313 0,0"
       style="fill:#333333 icc-color(sRGB-IEC61966-2, 0.1, 0.19999695, 0.19999695, 0.19999695);fill-opacity:1;fill-rule:nonzero;stroke:none"
       transform="matrix(0.35277776,0,0,-0.35277776,91.691431,135.64545)"
       clip-path="url(#clipPath66)" />
    <path
       id="path67"
       d="M 0,0 -1.464,0.845 0,1.69 C 0.543,2.003 0.729,2.697 0.415,3.239 0.102,3.783 -0.593,3.968 -1.135,3.655 L -2.599,2.81 v 1.671 c 0,0.627 -0.507,1.135 -1.133,1.135 -0.628,0 -1.136,-0.508 -1.136,-1.135 V 2.811 L -6.315,3.646 C -6.858,3.959 -7.552,3.773 -7.865,3.23 -8.179,2.688 -7.992,1.994 -7.45,1.681 L -6.002,0.845 -7.45,0.01 c -0.542,-0.314 -0.729,-1.008 -0.415,-1.551 0.21,-0.363 0.591,-0.567 0.983,-0.567 0.193,0 0.389,0.049 0.567,0.152 l 1.447,0.836 v -1.691 c 0,-0.627 0.508,-1.134 1.136,-1.134 0.626,0 1.133,0.507 1.133,1.134 v 1.691 l 1.464,-0.845 c 0.179,-0.103 0.374,-0.153 0.567,-0.153 0.391,0 0.773,0.204 0.983,0.568 C 0.728,-1.007 0.543,-0.313 0,0"
       style="fill:#333333 icc-color(sRGB-IEC61966-2, 0.1, 0.19999695, 0.19999695, 0.19999695);fill-opacity:1;fill-rule:nonzero;stroke:none"
       transform="matrix(0.35277776,0,0,-0.35277776,89.278503,132.31403)"
       clip-path="url(#clipPath68)" />
    <path
       id="path69"
       d="M 0,0 -1.463,0.846 0,1.69 C 0.543,2.004 0.729,2.697 0.415,3.24 0.103,3.783 -0.592,3.969 -1.135,3.655 L -2.597,2.811 v 1.671 c 0,0.626 -0.508,1.135 -1.135,1.135 -0.626,0 -1.134,-0.509 -1.134,-1.135 V 2.811 L -6.314,3.646 C -6.856,3.96 -7.551,3.773 -7.864,3.23 -8.178,2.688 -7.992,1.994 -7.449,1.682 L -6.001,0.846 -7.449,0.01 c -0.543,-0.314 -0.729,-1.008 -0.415,-1.55 0.21,-0.364 0.592,-0.567 0.983,-0.567 0.193,0 0.388,0.048 0.567,0.151 l 1.448,0.836 v -1.69 c 0,-0.627 0.508,-1.134 1.134,-1.134 0.627,0 1.135,0.507 1.135,1.134 v 1.69 l 1.462,-0.845 c 0.18,-0.103 0.375,-0.152 0.567,-0.152 0.392,0 0.774,0.203 0.983,0.567 C 0.729,-1.007 0.543,-0.313 0,0"
       style="fill:#333333 icc-color(sRGB-IEC61966-2, 0.1, 0.19999695, 0.19999695, 0.19999695);fill-opacity:1;fill-rule:nonzero;stroke:none"
       transform="matrix(0.35277776,0,0,-0.35277776,86.876227,135.64545)"
       clip-path="url(#clipPath70)" />
    <path
       id="path71"
       d="m 0,0 c -0.68,2.872 -2.333,5.454 -4.657,7.269 -2.026,1.581 -4.49,2.533 -7.034,2.729 -3.098,4.785 -8.412,7.705 -14.168,7.705 -3.908,0 -7.717,-1.366 -10.727,-3.848 -2.372,-1.956 -4.164,-4.527 -5.182,-7.394 -1.286,0.147 -2.607,0.069 -3.881,-0.232 -2.934,-0.696 -5.422,-2.491 -7.005,-5.056 -1.583,-2.566 -2.074,-5.595 -1.378,-8.528 0.589,-2.488 2.02,-4.722 4.031,-6.292 1.98,-1.546 4.445,-2.397 6.944,-2.397 h 0.071 3.563 0.013 c 1.253,0 2.269,1.017 2.269,2.27 0,1.253 -1.016,2.268 -2.269,2.268 v 10e-4 h -3.576 -0.018 l -0.053,-10e-4 c -3.138,0 -5.836,2.137 -6.559,5.196 -0.416,1.754 -0.123,3.566 0.824,5.099 0.945,1.534 2.434,2.607 4.188,3.023 0.514,0.122 1.039,0.183 1.56,0.183 0.731,0 1.456,-0.119 2.153,-0.355 0.616,-0.209 1.292,-0.144 1.856,0.18 0.565,0.324 0.964,0.874 1.095,1.511 1.172,5.698 6.253,9.834 12.081,9.834 4.539,0 8.701,-2.483 10.861,-6.481 0.408,-0.755 1.209,-1.216 2.064,-1.19 0.086,0.003 0.17,0.004 0.256,0.004 3.952,0 7.35,-2.69 8.262,-6.544 1.08,-4.56 -1.753,-9.149 -6.313,-10.229 -0.645,-0.153 -1.305,-0.23 -1.961,-0.23 h -1.885 v -10e-4 c -1.252,0 -2.269,-1.015 -2.269,-2.268 0,-1.253 1.017,-2.27 2.269,-2.27 h 0.012 1.874 c 1.008,0.001 2.019,0.119 3.005,0.353 C -2.688,-14.035 1.656,-6.996 0,0"
       style="fill:#333333 icc-color(sRGB-IEC61966-2, 0.1, 0.19999695, 0.19999695, 0.19999695);fill-opacity:1;fill-rule:nonzero;stroke:none"
       transform="matrix(0.35277776,0,0,-0.35277776,97.486796,127.1598)"
       clip-path="url(#clipPath72)" />
  </g>
</svg>
