<?xml version="1.0" encoding="UTF-8" standalone="no"?>
<!-- Created with Inkscape (http://www.inkscape.org/) -->

<svg
   width="19.29496mm"
   height="17.5338mm"
   viewBox="0 0 19.29496 17.533801"
   version="1.1"
   id="svg1"
   inkscape:version="1.3.2 (091e20e, 2023-11-25, custom)"
   sodipodi:docname="thunder.svg"
   xmlns:inkscape="http://www.inkscape.org/namespaces/inkscape"
   xmlns:sodipodi="http://sodipodi.sourceforge.net/DTD/sodipodi-0.dtd"
   xmlns="http://www.w3.org/2000/svg"
   xmlns:svg="http://www.w3.org/2000/svg">
  <sodipodi:namedview
     id="namedview1"
     pagecolor="#505050"
     bordercolor="#eeeeee"
     borderopacity="1"
     inkscape:showpageshadow="0"
     inkscape:pageopacity="0"
     inkscape:pagecheckerboard="0"
     inkscape:deskcolor="#505050"
     inkscape:document-units="mm"
     inkscape:zoom="1.0520974"
     inkscape:cx="25.187782"
     inkscape:cy="-58.929905"
     inkscape:window-width="1278"
     inkscape:window-height="1368"
     inkscape:window-x="2706"
     inkscape:window-y="405"
     inkscape:window-maximized="0"
     inkscape:current-layer="layer1" />
  <defs
     id="defs1">
    <clipPath
       clipPathUnits="userSpaceOnUse"
       id="clipPath154">
      <path
         d="M 0,600 H 800 V 0 H 0 Z"
         transform="translate(-255.52491,-443.47021)"
         id="path154" />
    </clipPath>
    <clipPath
       clipPathUnits="userSpaceOnUse"
       id="clipPath156">
      <path
         d="M 0,600 H 800 V 0 H 0 Z"
         transform="translate(-150,-468.99371)"
         id="path156" />
    </clipPath>
    <clipPath
       clipPathUnits="userSpaceOnUse"
       id="clipPath158">
      <path
         d="M 0,600 H 800 V 0 H 0 Z"
         transform="translate(-133.73781,-452.73101)"
         id="path158" />
    </clipPath>
    <clipPath
       clipPathUnits="userSpaceOnUse"
       id="clipPath160">
      <path
         d="M 0,600 H 800 V 0 H 0 Z"
         transform="translate(-149.9995,-429.90091)"
         id="path160" />
    </clipPath>
    <clipPath
       clipPathUnits="userSpaceOnUse"
       id="clipPath162">
      <path
         d="M 0,600 H 800 V 0 H 0 Z"
         transform="translate(-172.8301,-452.73101)"
         id="path162" />
    </clipPath>
    <clipPath
       clipPathUnits="userSpaceOnUse"
       id="clipPath164">
      <path
         d="M 0,600 H 800 V 0 H 0 Z"
         transform="translate(-150,-462.47121)"
         id="path164" />
    </clipPath>
    <clipPath
       clipPathUnits="userSpaceOnUse"
       id="clipPath166">
      <path
         d="M 0,600 H 800 V 0 H 0 Z"
         transform="translate(-138.501,-464.23101)"
         id="path166" />
    </clipPath>
    <clipPath
       clipPathUnits="userSpaceOnUse"
       id="clipPath168">
      <path
         d="M 0,600 H 800 V 0 H 0 Z"
         transform="translate(-136.1787,-438.90971)"
         id="path168" />
    </clipPath>
    <clipPath
       clipPathUnits="userSpaceOnUse"
       id="clipPath170">
      <path
         d="M 0,600 H 800 V 0 H 0 Z"
         transform="translate(-163.8213,-438.90971)"
         id="path170" />
    </clipPath>
    <clipPath
       clipPathUnits="userSpaceOnUse"
       id="clipPath172">
      <path
         d="M 0,600 H 800 V 0 H 0 Z"
         transform="translate(-161.49951,-464.23101)"
         id="path172" />
    </clipPath>
    <clipPath
       clipPathUnits="userSpaceOnUse"
       id="clipPath96">
      <path
         d="M 0,600 H 800 V 0 H 0 Z"
         transform="translate(-366.26611,-442.89601)"
         id="path96" />
    </clipPath>
    <clipPath
       clipPathUnits="userSpaceOnUse"
       id="clipPath54">
      <path
         d="M 0,600 H 800 V 0 H 0 Z"
         transform="translate(-472.62791,-443.96971)"
         id="path54" />
    </clipPath>
    <clipPath
       clipPathUnits="userSpaceOnUse"
       id="clipPath96-4">
      <path
         d="M 0,600 H 800 V 0 H 0 Z"
         transform="translate(-366.26611,-442.89601)"
         id="path96-3" />
    </clipPath>
    <clipPath
       clipPathUnits="userSpaceOnUse"
       id="clipPath26">
      <path
         d="M 0,600 H 800 V 0 H 0 Z"
         transform="translate(-568.05271,-430.56881)"
         id="path26" />
    </clipPath>
    <clipPath
       clipPathUnits="userSpaceOnUse"
       id="clipPath28">
      <path
         d="M 0,600 H 800 V 0 H 0 Z"
         transform="translate(-558.75592,-438.12651)"
         id="path28" />
    </clipPath>
    <clipPath
       clipPathUnits="userSpaceOnUse"
       id="clipPath30">
      <path
         d="M 0,600 H 800 V 0 H 0 Z"
         transform="translate(-563.51371,-445.68411)"
         id="path30" />
    </clipPath>
    <clipPath
       clipPathUnits="userSpaceOnUse"
       id="clipPath32">
      <path
         d="M 0,600 H 800 V 0 H 0 Z"
         transform="translate(-581.09572,-454.17041)"
         id="path32" />
    </clipPath>
    <clipPath
       clipPathUnits="userSpaceOnUse"
       id="clipPath174">
      <path
         d="M 0,600 H 800 V 0 H 0 Z"
         transform="translate(-625.96391,-456.28811)"
         id="path174" />
    </clipPath>
    <clipPath
       clipPathUnits="userSpaceOnUse"
       id="clipPath176">
      <path
         d="M 0,600 H 800 V 0 H 0 Z"
         transform="translate(-672.21782,-460.97751)"
         id="path176" />
    </clipPath>
    <clipPath
       clipPathUnits="userSpaceOnUse"
       id="clipPath178">
      <path
         d="M 0,600 H 800 V 0 H 0 Z"
         transform="translate(-666.01562,-445.71291)"
         id="path178" />
    </clipPath>
    <clipPath
       clipPathUnits="userSpaceOnUse"
       id="clipPath42">
      <path
         d="M 0,600 H 800 V 0 H 0 Z"
         transform="translate(-160.72611,-270.7354)"
         id="path42" />
    </clipPath>
    <clipPath
       clipPathUnits="userSpaceOnUse"
       id="clipPath44">
      <path
         d="M 0,600 H 800 V 0 H 0 Z"
         transform="translate(-149.2266,-265.9717)"
         id="path44" />
    </clipPath>
    <clipPath
       clipPathUnits="userSpaceOnUse"
       id="clipPath46">
      <path
         d="M 0,600 H 800 V 0 H 0 Z"
         transform="translate(-176.8696,-238.33011)"
         id="path46" />
    </clipPath>
    <clipPath
       clipPathUnits="userSpaceOnUse"
       id="clipPath48">
      <path
         d="M 0,600 H 800 V 0 H 0 Z"
         transform="translate(-183.5562,-254.4727)"
         id="path48" />
    </clipPath>
    <clipPath
       clipPathUnits="userSpaceOnUse"
       id="clipPath50">
      <path
         d="M 0,600 H 800 V 0 H 0 Z"
         transform="translate(-172.22511,-265.9717)"
         id="path50" />
    </clipPath>
    <clipPath
       clipPathUnits="userSpaceOnUse"
       id="clipPath52">
      <path
         d="M 0,600 H 800 V 0 H 0 Z"
         transform="translate(-163.8589,-255.4717)"
         id="path52" />
    </clipPath>
    <clipPath
       clipPathUnits="userSpaceOnUse"
       id="clipPath180">
      <path
         d="M 0,600 H 800 V 0 H 0 Z"
         transform="translate(-264.97221,-236.92771)"
         id="path180" />
    </clipPath>
    <clipPath
       clipPathUnits="userSpaceOnUse"
       id="clipPath114">
      <path
         d="M 0,600 H 800 V 0 H 0 Z"
         transform="translate(-145.1836,-342.72311)"
         id="path114" />
    </clipPath>
    <clipPath
       clipPathUnits="userSpaceOnUse"
       id="clipPath116">
      <path
         d="M 0,600 H 800 V 0 H 0 Z"
         transform="translate(-153.87741,-342.72311)"
         id="path116" />
    </clipPath>
    <clipPath
       clipPathUnits="userSpaceOnUse"
       id="clipPath118">
      <path
         d="M 0,600 H 800 V 0 H 0 Z"
         transform="translate(-176.9946,-359.78861)"
         id="path118" />
    </clipPath>
    <clipPath
       clipPathUnits="userSpaceOnUse"
       id="clipPath12">
      <path
         d="M 0,600 H 800 V 0 H 0 Z"
         transform="translate(-376.99461,-359.68651)"
         id="path12" />
    </clipPath>
    <clipPath
       clipPathUnits="userSpaceOnUse"
       id="clipPath14">
      <path
         d="M 0,600 H 800 V 0 H 0 Z"
         transform="translate(-337.58791,-335.64891)"
         id="path14" />
    </clipPath>
    <clipPath
       clipPathUnits="userSpaceOnUse"
       id="clipPath16">
      <path
         d="M 0,600 H 800 V 0 H 0 Z"
         transform="translate(-343.12351,-328.02341)"
         id="path16" />
    </clipPath>
    <clipPath
       clipPathUnits="userSpaceOnUse"
       id="clipPath18">
      <path
         d="M 0,600 H 800 V 0 H 0 Z"
         transform="translate(-356.26271,-338.75541)"
         id="path18" />
    </clipPath>
    <clipPath
       clipPathUnits="userSpaceOnUse"
       id="clipPath12-7">
      <path
         d="M 0,600 H 800 V 0 H 0 Z"
         transform="translate(-376.99461,-359.68651)"
         id="path12-0" />
    </clipPath>
    <clipPath
       clipPathUnits="userSpaceOnUse"
       id="clipPath14-9">
      <path
         d="M 0,600 H 800 V 0 H 0 Z"
         transform="translate(-337.58791,-335.64891)"
         id="path14-6" />
    </clipPath>
    <clipPath
       clipPathUnits="userSpaceOnUse"
       id="clipPath16-7">
      <path
         d="M 0,600 H 800 V 0 H 0 Z"
         transform="translate(-343.12351,-328.02341)"
         id="path16-3" />
    </clipPath>
    <clipPath
       clipPathUnits="userSpaceOnUse"
       id="clipPath18-4">
      <path
         d="M 0,600 H 800 V 0 H 0 Z"
         transform="translate(-356.26271,-338.75541)"
         id="path18-3" />
    </clipPath>
    <clipPath
       clipPathUnits="userSpaceOnUse"
       id="clipPath74">
      <path
         d="M 0,600 H 800 V 0 H 0 Z"
         transform="translate(-567.31051,-344.20701)"
         id="path74" />
    </clipPath>
    <clipPath
       clipPathUnits="userSpaceOnUse"
       id="clipPath76">
      <path
         d="M 0,600 H 800 V 0 H 0 Z"
         transform="translate(-550.93462,-344.44091)"
         id="path76" />
    </clipPath>
  </defs>
  <g
     inkscape:label="Layer 1"
     inkscape:groupmode="layer"
     id="layer1"
     transform="translate(-29.633295,-166.15834)">
    <path
       id="path73"
       d="m 0,0 c -0.986,-0.233 -1.997,-0.352 -3.006,-0.352 h -5.17 c -1.253,0 -2.269,1.016 -2.269,2.269 0,1.253 1.016,2.269 2.269,2.269 h 5.169 c 0.656,0.001 1.318,0.078 1.962,0.231 4.56,1.08 7.393,5.668 6.313,10.229 -0.913,3.853 -4.309,6.544 -8.262,6.544 -0.085,0 -0.17,-0.002 -0.255,-0.004 -0.857,-0.025 -1.657,0.435 -2.065,1.189 -2.162,3.998 -6.322,6.481 -10.861,6.481 -5.828,0 -10.909,-4.135 -12.082,-9.833 -0.131,-0.637 -0.529,-1.187 -1.094,-1.511 -0.564,-0.324 -1.241,-0.39 -1.856,-0.181 -0.697,0.236 -1.421,0.356 -2.152,0.356 -0.522,0 -1.047,-0.062 -1.561,-0.184 -1.755,-0.415 -3.242,-1.488 -4.188,-3.022 -0.948,-1.534 -1.24,-3.346 -0.825,-5.099 0.724,-3.059 3.421,-5.196 6.56,-5.196 h 7.6 c 1.252,0 2.269,-1.016 2.269,-2.269 0,-1.253 -1.017,-2.269 -2.269,-2.269 h -7.6 c -2.5,0 -4.965,0.851 -6.944,2.396 -2.011,1.571 -3.443,3.805 -4.033,6.292 -0.694,2.935 -0.205,5.962 1.379,8.528 1.583,2.566 4.072,4.362 7.005,5.056 1.276,0.302 2.596,0.379 3.883,0.232 1.018,2.868 2.809,5.44 5.182,7.394 3.009,2.482 6.819,3.849 10.726,3.849 5.758,0 11.071,-2.92 14.168,-7.705 C 0.535,25.493 3.001,24.541 5.027,22.96 7.35,21.146 9.004,18.564 9.685,15.691 11.34,8.695 6.996,1.657 0,0"
       style="fill:#333333 icc-color(sRGB-IEC61966-2, 0.1, 0.19999695, 0.19999695, 0.19999695);fill-opacity:1;fill-rule:nonzero;stroke:none"
       transform="matrix(0.35277776,0,0,-0.35277776,45.387505,177.93935)"
       clip-path="url(#clipPath74)" />
    <path
       id="path75"
       d="m 0,0 h 3.207 l -6.852,-16.541 1.64,11.918 h -3.049 l 2.403,13.212 h 6.238 z"
       style="fill:#333333 icc-color(sRGB-IEC61966-2, 0.1, 0.19999695, 0.19999695, 0.19999695);fill-opacity:1;fill-rule:nonzero;stroke:none"
       transform="matrix(0.35277776,0,0,-0.35277776,39.610452,177.85684)"
       clip-path="url(#clipPath76)" />
  </g>
</svg>
